<svg width="20" height="20" viewBox="0 0 20 20" fill="none" xmlns="http://www.w3.org/2000/svg">
<path d="M15.6464 16.3536L16 16.7071L16.7071 16L16.3536 15.6464L15.6464 16.3536ZM13.4536 12.7464C13.2583 12.5512 12.9417 12.5512 12.7464 12.7464C12.5512 12.9417 12.5512 13.2583 12.7464 13.4536L13.4536 12.7464ZM14.1667 9.33333C14.1667 12.0027 12.0027 14.1667 9.33333 14.1667V15.1667C12.555 15.1667 15.1667 12.555 15.1667 9.33333H14.1667ZM9.33333 14.1667C6.66396 14.1667 4.5 12.0027 4.5 9.33333H3.5C3.5 12.555 6.11167 15.1667 9.33333 15.1667V14.1667ZM4.5 9.33333C4.5 6.66396 6.66396 4.5 9.33333 4.5V3.5C6.11167 3.5 3.5 6.11167 3.5 9.33333H4.5ZM9.33333 4.5C12.0027 4.5 14.1667 6.66396 14.1667 9.33333H15.1667C15.1667 6.11167 12.555 3.5 9.33333 3.5V4.5ZM16.3536 15.6464L13.4536 12.7464L12.7464 13.4536L15.6464 16.3536L16.3536 15.6464Z" fill="#222222"/>
</svg>
