<svg width="20" height="20" viewBox="0 0 20 20" fill="none" xmlns="http://www.w3.org/2000/svg">
<path d="M9.16667 15.8333C12.8486 15.8333 15.8333 12.8486 15.8333 9.16667C15.8333 5.48477 12.8486 2.5 9.16667 2.5C5.48477 2.5 2.5 5.48477 2.5 9.16667C2.5 12.8486 5.48477 15.8333 9.16667 15.8333Z" fill="#FFDD99" stroke="#222222" stroke-linecap="round" stroke-linejoin="round"/>
<path d="M17.1464 17.8536L17.5 18.2071L18.2071 17.5L17.8536 17.1464L17.1464 17.8536ZM14.2286 13.5214C14.0333 13.3262 13.7167 13.3262 13.5214 13.5214C13.3262 13.7167 13.3262 14.0333 13.5214 14.2286L14.2286 13.5214ZM17.8536 17.1464L14.2286 13.5214L13.5214 14.2286L17.1464 17.8536L17.8536 17.1464Z" fill="#222222"/>
</svg>
