<svg width="20" height="20" viewBox="0 0 20 20" fill="none" xmlns="http://www.w3.org/2000/svg">
<path d="M18 14.0021H2C2.63652 14.0021 3.24697 13.7492 3.69706 13.2991C4.14714 12.8489 4.4 12.2383 4.4 11.6017V7.60099C4.4 6.11552 4.99 4.69088 6.0402 3.64049C7.09041 2.5901 8.51479 2 10 2C11.4852 2 12.9096 2.5901 13.9598 3.64049C15.01 4.69088 15.6 6.11552 15.6 7.60099V11.6017C15.6 12.2383 15.8529 12.8489 16.3029 13.2991C16.753 13.7492 17.3635 14.0021 18 14.0021ZM11.384 17.2027C11.2434 17.4452 11.0415 17.6465 10.7986 17.7864C10.5557 17.9263 10.2803 18 10 18C9.7197 18 9.44431 17.9263 9.20142 17.7864C8.95853 17.6465 8.75665 17.4452 8.616 17.2027" fill="#FFDD99"/>
<path d="M11.384 17.2027C11.2434 17.4452 11.0415 17.6465 10.7986 17.7864C10.5557 17.9263 10.2803 18 10 18C9.7197 18 9.44431 17.9263 9.20142 17.7864C8.95853 17.6465 8.75665 17.4452 8.616 17.2027M18 14.0021H2C2.63652 14.0021 3.24697 13.7492 3.69706 13.2991C4.14714 12.8489 4.4 12.2383 4.4 11.6017V7.60099C4.4 6.11552 4.99 4.69088 6.0402 3.64049C7.09041 2.5901 8.51479 2 10 2C11.4852 2 12.9096 2.5901 13.9598 3.64049C15.01 4.69088 15.6 6.11552 15.6 7.60099V11.6017C15.6 12.2383 15.8529 12.8489 16.3029 13.2991C16.753 13.7492 17.3635 14.0021 18 14.0021V14.0021Z" stroke="#222222" stroke-linecap="square"/>
</svg>
