<svg width="20" height="20" viewBox="0 0 20 20" fill="none" xmlns="http://www.w3.org/2000/svg">
<path d="M15.8333 11.7778V11.2778H14.8333V11.7778H15.8333ZM2 16.2222H1.5H2ZM8.22222 5.16667H8.72222V4.16667H8.22222V5.16667ZM12.6667 1.5H12.1667V2.5H12.6667V1.5ZM18 2H18.5V1.5H18V2ZM17.5 7.33333V7.83333H18.5V7.33333H17.5ZM7.86867 11.4242L7.51512 11.7778L8.22222 12.4849L8.57578 12.1313L7.86867 11.4242ZM14.8333 11.7778V16.2222H15.8333V11.7778H14.8333ZM14.8333 16.2222C14.8333 16.5611 14.6987 16.8861 14.4591 17.1257L15.1662 17.8329C15.5934 17.4057 15.8333 16.8263 15.8333 16.2222H14.8333ZM14.4591 17.1257C14.2194 17.3654 13.8944 17.5 13.5556 17.5V18.5C14.1597 18.5 14.739 18.26 15.1662 17.8329L14.4591 17.1257ZM13.5556 17.5H3.77778V18.5H13.5556V17.5ZM3.77778 17.5C3.43889 17.5 3.11388 17.3654 2.87425 17.1257L2.16715 17.8329C2.59431 18.26 3.17367 18.5 3.77778 18.5V17.5ZM2.87425 17.1257C2.63462 16.8861 2.5 16.5611 2.5 16.2222H1.5C1.5 16.8263 1.73998 17.4057 2.16715 17.8329L2.87425 17.1257ZM2.5 16.2222V6.44444H1.5V16.2222H2.5ZM2.5 6.44444C2.5 5.74281 3.07614 5.16667 3.77778 5.16667V4.16667C2.52386 4.16667 1.5 5.19052 1.5 6.44444H2.5ZM3.77778 5.16667H8.22222V4.16667H3.77778V5.16667ZM12.6667 2.5C12.6707 2.5 12.6748 2.5 12.6789 2.5C12.683 2.5 12.687 2.5 12.6911 2.5C12.6952 2.5 12.6993 2.5 12.7034 2.5C12.7075 2.5 12.7116 2.5 12.7157 2.5C12.7198 2.5 12.7239 2.5 12.728 2.5C12.7321 2.5 12.7362 2.5 12.7404 2.5C12.7445 2.5 12.7486 2.5 12.7527 2.5C12.7569 2.5 12.761 2.5 12.7651 2.5C12.7693 2.5 12.7734 2.5 12.7776 2.5C12.7817 2.5 12.7859 2.5 12.79 2.5C12.7942 2.5 12.7983 2.5 12.8025 2.5C12.8066 2.5 12.8108 2.5 12.815 2.5C12.8192 2.5 12.8233 2.5 12.8275 2.5C12.8317 2.5 12.8359 2.5 12.8401 2.5C12.8442 2.5 12.8484 2.5 12.8526 2.5C12.8568 2.5 12.861 2.5 12.8652 2.5C12.8694 2.5 12.8736 2.5 12.8778 2.5C12.882 2.5 12.8863 2.5 12.8905 2.5C12.8947 2.5 12.8989 2.5 12.9031 2.5C12.9074 2.5 12.9116 2.5 12.9158 2.5C12.9201 2.5 12.9243 2.5 12.9285 2.5C12.9328 2.5 12.937 2.5 12.9413 2.5C12.9455 2.5 12.9498 2.5 12.954 2.5C12.9583 2.5 12.9625 2.5 12.9668 2.5C12.9711 2.5 12.9753 2.5 12.9796 2.5C12.9839 2.5 12.9881 2.5 12.9924 2.5C12.9967 2.5 13.001 2.5 13.0053 2.5C13.0096 2.5 13.0138 2.5 13.0181 2.5C13.0224 2.5 13.0267 2.5 13.031 2.5C13.0353 2.5 13.0396 2.5 13.0439 2.5C13.0482 2.5 13.0525 2.5 13.0568 2.5C13.0612 2.5 13.0655 2.5 13.0698 2.5C13.0741 2.5 13.0784 2.5 13.0828 2.5C13.0871 2.5 13.0914 2.5 13.0958 2.5C13.1001 2.5 13.1044 2.5 13.1088 2.5C13.1131 2.5 13.1174 2.5 13.1218 2.5C13.1261 2.5 13.1305 2.5 13.1348 2.5C13.1392 2.5 13.1435 2.5 13.1479 2.5C13.1523 2.5 13.1566 2.5 13.161 2.5C13.1654 2.5 13.1697 2.5 13.1741 2.5C13.1785 2.5 13.1828 2.5 13.1872 2.5C13.1916 2.5 13.196 2.5 13.2004 2.5C13.2047 2.5 13.2091 2.5 13.2135 2.5C13.2179 2.5 13.2223 2.5 13.2267 2.5C13.2311 2.5 13.2355 2.5 13.2399 2.5C13.2443 2.5 13.2487 2.5 13.2531 2.5C13.2575 2.5 13.2619 2.5 13.2664 2.5C13.2708 2.5 13.2752 2.5 13.2796 2.5C13.284 2.5 13.2884 2.5 13.2929 2.5C13.2973 2.5 13.3017 2.5 13.3062 2.5C13.3106 2.5 13.315 2.5 13.3195 2.5C13.3239 2.5 13.3283 2.5 13.3328 2.5C13.3372 2.5 13.3417 2.5 13.3461 2.5C13.3506 2.5 13.355 2.5 13.3595 2.5C13.3639 2.5 13.3684 2.5 13.3728 2.5C13.3773 2.5 13.3817 2.5 13.3862 2.5C13.3907 2.5 13.3951 2.5 13.3996 2.5C13.4041 2.5 13.4086 2.5 13.413 2.5C13.4175 2.5 13.422 2.5 13.4265 2.5C13.4309 2.5 13.4354 2.5 13.4399 2.5C13.4444 2.5 13.4489 2.5 13.4534 2.5C13.4578 2.5 13.4623 2.5 13.4668 2.5C13.4713 2.5 13.4758 2.5 13.4803 2.5C13.4848 2.5 13.4893 2.5 13.4938 2.5C13.4983 2.5 13.5028 2.5 13.5073 2.5C13.5118 2.5 13.5164 2.5 13.5209 2.5C13.5254 2.5 13.5299 2.5 13.5344 2.5C13.5389 2.5 13.5435 2.5 13.548 2.5C13.5525 2.5 13.557 2.5 13.5615 2.5C13.5661 2.5 13.5706 2.5 13.5751 2.5C13.5797 2.5 13.5842 2.5 13.5887 2.5C13.5933 2.5 13.5978 2.5 13.6023 2.5C13.6069 2.5 13.6114 2.5 13.616 2.5C13.6205 2.5 13.625 2.5 13.6296 2.5C13.6341 2.5 13.6387 2.5 13.6432 2.5C13.6478 2.5 13.6523 2.5 13.6569 2.5C13.6615 2.5 13.666 2.5 13.6706 2.5C13.6751 2.5 13.6797 2.5 13.6843 2.5C13.6888 2.5 13.6934 2.5 13.6979 2.5C13.7025 2.5 13.7071 2.5 13.7117 2.5C13.7162 2.5 13.7208 2.5 13.7254 2.5C13.7299 2.5 13.7345 2.5 13.7391 2.5C13.7437 2.5 13.7482 2.5 13.7528 2.5C13.7574 2.5 13.762 2.5 13.7666 2.5C13.7712 2.5 13.7757 2.5 13.7803 2.5C13.7849 2.5 13.7895 2.5 13.7941 2.5C13.7987 2.5 13.8033 2.5 13.8079 2.5C13.8125 2.5 13.8171 2.5 13.8217 2.5C13.8263 2.5 13.8309 2.5 13.8355 2.5C13.8401 2.5 13.8447 2.5 13.8493 2.5C13.8539 2.5 13.8585 2.5 13.8631 2.5C13.8677 2.5 13.8723 2.5 13.8769 2.5C13.8815 2.5 13.8861 2.5 13.8907 2.5C13.8953 2.5 13.9 2.5 13.9046 2.5C13.9092 2.5 13.9138 2.5 13.9184 2.5C13.923 2.5 13.9277 2.5 13.9323 2.5C13.9369 2.5 13.9415 2.5 13.9461 2.5C13.9508 2.5 13.9554 2.5 13.96 2.5C13.9646 2.5 13.9693 2.5 13.9739 2.5C13.9785 2.5 13.9831 2.5 13.9878 2.5C13.9924 2.5 13.997 2.5 14.0017 2.5C14.0063 2.5 14.0109 2.5 14.0156 2.5C14.0202 2.5 14.0248 2.5 14.0295 2.5C14.0341 2.5 14.0387 2.5 14.0434 2.5C14.048 2.5 14.0527 2.5 14.0573 2.5C14.0619 2.5 14.0666 2.5 14.0712 2.5C14.0759 2.5 14.0805 2.5 14.0852 2.5C14.0898 2.5 14.0944 2.5 14.0991 2.5C14.1037 2.5 14.1084 2.5 14.113 2.5C14.1177 2.5 14.1223 2.5 14.127 2.5C14.1316 2.5 14.1363 2.5 14.1409 2.5C14.1456 2.5 14.1502 2.5 14.1549 2.5C14.1595 2.5 14.1642 2.5 14.1688 2.5C14.1735 2.5 14.1782 2.5 14.1828 2.5C14.1875 2.5 14.1921 2.5 14.1968 2.5C14.2014 2.5 14.2061 2.5 14.2108 2.5C14.2154 2.5 14.2201 2.5 14.2247 2.5C14.2294 2.5 14.2341 2.5 14.2387 2.5C14.2434 2.5 14.248 2.5 14.2527 2.5C14.2574 2.5 14.262 2.5 14.2667 2.5C14.2714 2.5 14.276 2.5 14.2807 2.5C14.2853 2.5 14.29 2.5 14.2947 2.5C14.2993 2.5 14.304 2.5 14.3087 2.5C14.3133 2.5 14.318 2.5 14.3227 2.5C14.3273 2.5 14.332 2.5 14.3367 2.5C14.3413 2.5 14.346 2.5 14.3507 2.5C14.3553 2.5 14.36 2.5 14.3647 2.5C14.3693 2.5 14.374 2.5 14.3787 2.5C14.3833 2.5 14.388 2.5 14.3927 2.5C14.3974 2.5 14.402 2.5 14.4067 2.5C14.4114 2.5 14.416 2.5 14.4207 2.5C14.4254 2.5 14.43 2.5 14.4347 2.5C14.4394 2.5 14.4441 2.5 14.4487 2.5C14.4534 2.5 14.4581 2.5 14.4627 2.5C14.4674 2.5 14.4721 2.5 14.4768 2.5C14.4814 2.5 14.4861 2.5 14.4908 2.5C14.4954 2.5 14.5001 2.5 14.5048 2.5C14.5094 2.5 14.5141 2.5 14.5188 2.5C14.5235 2.5 14.5281 2.5 14.5328 2.5C14.5375 2.5 14.5421 2.5 14.5468 2.5C14.5515 2.5 14.5562 2.5 14.5608 2.5C14.5655 2.5 14.5702 2.5 14.5748 2.5C14.5795 2.5 14.5842 2.5 14.5888 2.5C14.5935 2.5 14.5982 2.5 14.6028 2.5C14.6075 2.5 14.6122 2.5 14.6168 2.5C14.6215 2.5 14.6262 2.5 14.6308 2.5C14.6355 2.5 14.6402 2.5 14.6448 2.5C14.6495 2.5 14.6542 2.5 14.6588 2.5C14.6635 2.5 14.6682 2.5 14.6728 2.5C14.6775 2.5 14.6822 2.5 14.6868 2.5C14.6915 2.5 14.6962 2.5 14.7008 2.5C14.7055 2.5 14.7101 2.5 14.7148 2.5C14.7195 2.5 14.7241 2.5 14.7288 2.5C14.7335 2.5 14.7381 2.5 14.7428 2.5C14.7474 2.5 14.7521 2.5 14.7567 2.5C14.7614 2.5 14.7661 2.5 14.7707 2.5C14.7754 2.5 14.78 2.5 14.7847 2.5C14.7893 2.5 14.794 2.5 14.7987 2.5C14.8033 2.5 14.808 2.5 14.8126 2.5C14.8173 2.5 14.8219 2.5 14.8266 2.5C14.8312 2.5 14.8359 2.5 14.8405 2.5C14.8452 2.5 14.8498 2.5 14.8545 2.5C14.8591 2.5 14.8638 2.5 14.8684 2.5C14.873 2.5 14.8777 2.5 14.8823 2.5C14.887 2.5 14.8916 2.5 14.8963 2.5C14.9009 2.5 14.9055 2.5 14.9102 2.5C14.9148 2.5 14.9195 2.5 14.9241 2.5C14.9287 2.5 14.9334 2.5 14.938 2.5C14.9426 2.5 14.9473 2.5 14.9519 2.5C14.9565 2.5 14.9612 2.5 14.9658 2.5C14.9704 2.5 14.9751 2.5 14.9797 2.5C14.9843 2.5 14.989 2.5 14.9936 2.5C14.9982 2.5 15.0028 2.5 15.0075 2.5C15.0121 2.5 15.0167 2.5 15.0213 2.5C15.0259 2.5 15.0306 2.5 15.0352 2.5C15.0398 2.5 15.0444 2.5 15.049 2.5C15.0537 2.5 15.0583 2.5 15.0629 2.5C15.0675 2.5 15.0721 2.5 15.0767 2.5C15.0813 2.5 15.0859 2.5 15.0905 2.5C15.0952 2.5 15.0998 2.5 15.1044 2.5C15.109 2.5 15.1136 2.5 15.1182 2.5C15.1228 2.5 15.1274 2.5 15.132 2.5C15.1366 2.5 15.1412 2.5 15.1458 2.5C15.1504 2.5 15.155 2.5 15.1596 2.5C15.1642 2.5 15.1687 2.5 15.1733 2.5C15.1779 2.5 15.1825 2.5 15.1871 2.5C15.1917 2.5 15.1963 2.5 15.2008 2.5C15.2054 2.5 15.21 2.5 15.2146 2.5C15.2192 2.5 15.2237 2.5 15.2283 2.5C15.2329 2.5 15.2375 2.5 15.242 2.5C15.2466 2.5 15.2512 2.5 15.2558 2.5C15.2603 2.5 15.2649 2.5 15.2695 2.5C15.274 2.5 15.2786 2.5 15.2831 2.5C15.2877 2.5 15.2923 2.5 15.2968 2.5C15.3014 2.5 15.3059 2.5 15.3105 2.5C15.315 2.5 15.3196 2.5 15.3241 2.5C15.3287 2.5 15.3332 2.5 15.3378 2.5C15.3423 2.5 15.3469 2.5 15.3514 2.5C15.356 2.5 15.3605 2.5 15.365 2.5C15.3696 2.5 15.3741 2.5 15.3786 2.5C15.3832 2.5 15.3877 2.5 15.3922 2.5C15.3968 2.5 15.4013 2.5 15.4058 2.5C15.4103 2.5 15.4149 2.5 15.4194 2.5C15.4239 2.5 15.4284 2.5 15.4329 2.5C15.4375 2.5 15.442 2.5 15.4465 2.5C15.451 2.5 15.4555 2.5 15.46 2.5C15.4645 2.5 15.469 2.5 15.4735 2.5C15.478 2.5 15.4825 2.5 15.487 2.5C15.4915 2.5 15.496 2.5 15.5005 2.5C15.505 2.5 15.5095 2.5 15.514 2.5C15.5185 2.5 15.5229 2.5 15.5274 2.5C15.5319 2.5 15.5364 2.5 15.5409 2.5C15.5453 2.5 15.5498 2.5 15.5543 2.5C15.5588 2.5 15.5632 2.5 15.5677 2.5C15.5722 2.5 15.5766 2.5 15.5811 2.5C15.5855 2.5 15.59 2.5 15.5945 2.5C15.5989 2.5 15.6034 2.5 15.6078 2.5C15.6123 2.5 15.6167 2.5 15.6212 2.5C15.6256 2.5 15.6301 2.5 15.6345 2.5C15.6389 2.5 15.6434 2.5 15.6478 2.5C15.6522 2.5 15.6567 2.5 15.6611 2.5C15.6655 2.5 15.67 2.5 15.6744 2.5C15.6788 2.5 15.6832 2.5 15.6876 2.5C15.6921 2.5 15.6965 2.5 15.7009 2.5C15.7053 2.5 15.7097 2.5 15.7141 2.5C15.7185 2.5 15.7229 2.5 15.7273 2.5C15.7317 2.5 15.7361 2.5 15.7405 2.5C15.7449 2.5 15.7493 2.5 15.7537 2.5C15.7581 2.5 15.7625 2.5 15.7668 2.5C15.7712 2.5 15.7756 2.5 15.78 2.5C15.7844 2.5 15.7887 2.5 15.7931 2.5C15.7975 2.5 15.8018 2.5 15.8062 2.5C15.8106 2.5 15.8149 2.5 15.8193 2.5C15.8236 2.5 15.828 2.5 15.8323 2.5C15.8367 2.5 15.841 2.5 15.8454 2.5C15.8497 2.5 15.8541 2.5 15.8584 2.5C15.8627 2.5 15.8671 2.5 15.8714 2.5C15.8757 2.5 15.8801 2.5 15.8844 2.5C15.8887 2.5 15.893 2.5 15.8973 2.5C15.9017 2.5 15.906 2.5 15.9103 2.5C15.9146 2.5 15.9189 2.5 15.9232 2.5C15.9275 2.5 15.9318 2.5 15.9361 2.5C15.9404 2.5 15.9447 2.5 15.949 2.5C15.9533 2.5 15.9576 2.5 15.9618 2.5C15.9661 2.5 15.9704 2.5 15.9747 2.5C15.9789 2.5 15.9832 2.5 15.9875 2.5C15.9918 2.5 15.996 2.5 16.0003 2.5C16.0045 2.5 16.0088 2.5 16.013 2.5C16.0173 2.5 16.0215 2.5 16.0258 2.5C16.03 2.5 16.0343 2.5 16.0385 2.5C16.0428 2.5 16.047 2.5 16.0512 2.5C16.0554 2.5 16.0597 2.5 16.0639 2.5C16.0681 2.5 16.0723 2.5 16.0766 2.5C16.0808 2.5 16.085 2.5 16.0892 2.5C16.0934 2.5 16.0976 2.5 16.1018 2.5C16.106 2.5 16.1102 2.5 16.1144 2.5C16.1186 2.5 16.1228 2.5 16.1269 2.5C16.1311 2.5 16.1353 2.5 16.1395 2.5C16.1437 2.5 16.1478 2.5 16.152 2.5C16.1562 2.5 16.1603 2.5 16.1645 2.5C16.1686 2.5 16.1728 2.5 16.177 2.5C16.1811 2.5 16.1852 2.5 16.1894 2.5C16.1935 2.5 16.1977 2.5 16.2018 2.5C16.2059 2.5 16.2101 2.5 16.2142 2.5C16.2183 2.5 16.2224 2.5 16.2266 2.5C16.2307 2.5 16.2348 2.5 16.2389 2.5C16.243 2.5 16.2471 2.5 16.2512 2.5C16.2553 2.5 16.2594 2.5 16.2635 2.5C16.2676 2.5 16.2717 2.5 16.2758 2.5C16.2798 2.5 16.2839 2.5 16.288 2.5C16.2921 2.5 16.2961 2.5 16.3002 2.5C16.3043 2.5 16.3083 2.5 16.3124 2.5C16.3164 2.5 16.3205 2.5 16.3245 2.5C16.3286 2.5 16.3326 2.5 16.3367 2.5C16.3407 2.5 16.3447 2.5 16.3488 2.5C16.3528 2.5 16.3568 2.5 16.3608 2.5C16.3649 2.5 16.3689 2.5 16.3729 2.5C16.3769 2.5 16.3809 2.5 16.3849 2.5C16.3889 2.5 16.3929 2.5 16.3969 2.5C16.4009 2.5 16.4049 2.5 16.4088 2.5C16.4128 2.5 16.4168 2.5 16.4208 2.5C16.4247 2.5 16.4287 2.5 16.4327 2.5C16.4366 2.5 16.4406 2.5 16.4445 2.5C16.4485 2.5 16.4524 2.5 16.4564 2.5C16.4603 2.5 16.4643 2.5 16.4682 2.5C16.4721 2.5 16.4761 2.5 16.48 2.5C16.4839 2.5 16.4878 2.5 16.4917 2.5C16.4957 2.5 16.4996 2.5 16.5035 2.5C16.5074 2.5 16.5113 2.5 16.5152 2.5C16.5191 2.5 16.5229 2.5 16.5268 2.5C16.5307 2.5 16.5346 2.5 16.5385 2.5C16.5423 2.5 16.5462 2.5 16.5501 2.5C16.5539 2.5 16.5578 2.5 16.5616 2.5C16.5655 2.5 16.5693 2.5 16.5732 2.5C16.577 2.5 16.5809 2.5 16.5847 2.5C16.5885 2.5 16.5923 2.5 16.5962 2.5C16.6 2.5 16.6038 2.5 16.6076 2.5C16.6114 2.5 16.6152 2.5 16.619 2.5C16.6228 2.5 16.6266 2.5 16.6304 2.5C16.6342 2.5 16.638 2.5 16.6418 2.5C16.6455 2.5 16.6493 2.5 16.6531 2.5C16.6568 2.5 16.6606 2.5 16.6644 2.5C16.6681 2.5 16.6719 2.5 16.6756 2.5C16.6794 2.5 16.6831 2.5 16.6868 2.5C16.6906 2.5 16.6943 2.5 16.698 2.5C16.7017 2.5 16.7055 2.5 16.7092 2.5C16.7129 2.5 16.7166 2.5 16.7203 2.5C16.724 2.5 16.7277 2.5 16.7314 2.5C16.7351 2.5 16.7388 2.5 16.7424 2.5C16.7461 2.5 16.7498 2.5 16.7534 2.5C16.7571 2.5 16.7608 2.5 16.7644 2.5C16.7681 2.5 16.7717 2.5 16.7754 2.5C16.779 2.5 16.7827 2.5 16.7863 2.5C16.7899 2.5 16.7935 2.5 16.7972 2.5C16.8008 2.5 16.8044 2.5 16.808 2.5C16.8116 2.5 16.8152 2.5 16.8188 2.5C16.8224 2.5 16.826 2.5 16.8296 2.5C16.8332 2.5 16.8367 2.5 16.8403 2.5C16.8439 2.5 16.8475 2.5 16.851 2.5C16.8546 2.5 16.8581 2.5 16.8617 2.5C16.8652 2.5 16.8688 2.5 16.8723 2.5C16.8758 2.5 16.8794 2.5 16.8829 2.5C16.8864 2.5 16.8899 2.5 16.8934 2.5C16.897 2.5 16.9005 2.5 16.904 2.5C16.9075 2.5 16.9109 2.5 16.9144 2.5C16.9179 2.5 16.9214 2.5 16.9249 2.5C16.9284 2.5 16.9318 2.5 16.9353 2.5C16.9387 2.5 16.9422 2.5 16.9456 2.5C16.9491 2.5 16.9525 2.5 16.956 2.5C16.9594 2.5 16.9628 2.5 16.9663 2.5C16.9697 2.5 16.9731 2.5 16.9765 2.5C16.9799 2.5 16.9833 2.5 16.9867 2.5C16.9901 2.5 16.9935 2.5 16.9969 2.5C17.0003 2.5 17.0037 2.5 17.007 2.5C17.0104 2.5 17.0138 2.5 17.0171 2.5C17.0205 2.5 17.0238 2.5 17.0272 2.5C17.0305 2.5 17.0339 2.5 17.0372 2.5C17.0405 2.5 17.0438 2.5 17.0472 2.5C17.0505 2.5 17.0538 2.5 17.0571 2.5C17.0604 2.5 17.0637 2.5 17.067 2.5C17.0703 2.5 17.0736 2.5 17.0769 2.5C17.0801 2.5 17.0834 2.5 17.0867 2.5C17.0899 2.5 17.0932 2.5 17.0964 2.5C17.0997 2.5 17.1029 2.5 17.1062 2.5C17.1094 2.5 17.1126 2.5 17.1159 2.5C17.1191 2.5 17.1223 2.5 17.1255 2.5C17.1287 2.5 17.1319 2.5 17.1351 2.5C17.1383 2.5 17.1415 2.5 17.1447 2.5C17.1479 2.5 17.151 2.5 17.1542 2.5C17.1574 2.5 17.1605 2.5 17.1637 2.5C17.1668 2.5 17.17 2.5 17.1731 2.5C17.1763 2.5 17.1794 2.5 17.1825 2.5C17.1857 2.5 17.1888 2.5 17.1919 2.5C17.195 2.5 17.1981 2.5 17.2012 2.5C17.2043 2.5 17.2074 2.5 17.2105 2.5C17.2135 2.5 17.2166 2.5 17.2197 2.5C17.2228 2.5 17.2258 2.5 17.2289 2.5C17.2319 2.5 17.235 2.5 17.238 2.5C17.241 2.5 17.2441 2.5 17.2471 2.5C17.2501 2.5 17.2531 2.5 17.2561 2.5C17.2592 2.5 17.2622 2.5 17.2652 2.5C17.2681 2.5 17.2711 2.5 17.2741 2.5C17.2771 2.5 17.2801 2.5 17.283 2.5C17.286 2.5 17.289 2.5 17.2919 2.5C17.2948 2.5 17.2978 2.5 17.3007 2.5C17.3037 2.5 17.3066 2.5 17.3095 2.5C17.3124 2.5 17.3153 2.5 17.3182 2.5C17.3211 2.5 17.324 2.5 17.3269 2.5C17.3298 2.5 17.3327 2.5 17.3356 2.5C17.3384 2.5 17.3413 2.5 17.3442 2.5C17.347 2.5 17.3499 2.5 17.3527 2.5C17.3556 2.5 17.3584 2.5 17.3612 2.5C17.364 2.5 17.3669 2.5 17.3697 2.5C17.3725 2.5 17.3753 2.5 17.3781 2.5C17.3809 2.5 17.3837 2.5 17.3864 2.5C17.3892 2.5 17.392 2.5 17.3948 2.5C17.3975 2.5 17.4003 2.5 17.403 2.5C17.4058 2.5 17.4085 2.5 17.4113 2.5C17.414 2.5 17.4167 2.5 17.4194 2.5C17.4221 2.5 17.4248 2.5 17.4275 2.5C17.4302 2.5 17.4329 2.5 17.4356 2.5C17.4383 2.5 17.441 2.5 17.4437 2.5C17.4463 2.5 17.449 2.5 17.4516 2.5C17.4543 2.5 17.4569 2.5 17.4596 2.5C17.4622 2.5 17.4648 2.5 17.4674 2.5C17.4701 2.5 17.4727 2.5 17.4753 2.5C17.4779 2.5 17.4805 2.5 17.4831 2.5C17.4856 2.5 17.4882 2.5 17.4908 2.5C17.4934 2.5 17.4959 2.5 17.4985 2.5C17.501 2.5 17.5036 2.5 17.5061 2.5C17.5086 2.5 17.5112 2.5 17.5137 2.5C17.5162 2.5 17.5187 2.5 17.5212 2.5C17.5237 2.5 17.5262 2.5 17.5287 2.5C17.5312 2.5 17.5337 2.5 17.5361 2.5C17.5386 2.5 17.541 2.5 17.5435 2.5C17.546 2.5 17.5484 2.5 17.5508 2.5C17.5533 2.5 17.5557 2.5 17.5581 2.5C17.5605 2.5 17.5629 2.5 17.5653 2.5C17.5677 2.5 17.5701 2.5 17.5725 2.5C17.5749 2.5 17.5773 2.5 17.5796 2.5C17.582 2.5 17.5843 2.5 17.5867 2.5C17.589 2.5 17.5914 2.5 17.5937 2.5C17.596 2.5 17.5984 2.5 17.6007 2.5C17.603 2.5 17.6053 2.5 17.6076 2.5C17.6099 2.5 17.6122 2.5 17.6144 2.5C17.6167 2.5 17.619 2.5 17.6212 2.5C17.6235 2.5 17.6257 2.5 17.628 2.5C17.6302 2.5 17.6325 2.5 17.6347 2.5C17.6369 2.5 17.6391 2.5 17.6413 2.5C17.6435 2.5 17.6457 2.5 17.6479 2.5C17.6501 2.5 17.6523 2.5 17.6544 2.5C17.6566 2.5 17.6588 2.5 17.6609 2.5C17.6631 2.5 17.6652 2.5 17.6673 2.5C17.6695 2.5 17.6716 2.5 17.6737 2.5C17.6758 2.5 17.6779 2.5 17.68 2.5C17.6821 2.5 17.6842 2.5 17.6863 2.5C17.6884 2.5 17.6904 2.5 17.6925 2.5C17.6946 2.5 17.6966 2.5 17.6986 2.5C17.7007 2.5 17.7027 2.5 17.7047 2.5C17.7068 2.5 17.7088 2.5 17.7108 2.5C17.7128 2.5 17.7148 2.5 17.7168 2.5C17.7187 2.5 17.7207 2.5 17.7227 2.5C17.7246 2.5 17.7266 2.5 17.7286 2.5C17.7305 2.5 17.7324 2.5 17.7344 2.5C17.7363 2.5 17.7382 2.5 17.7401 2.5C17.742 2.5 17.7439 2.5 17.7458 2.5C17.7477 2.5 17.7496 2.5 17.7515 2.5C17.7533 2.5 17.7552 2.5 17.757 2.5C17.7589 2.5 17.7607 2.5 17.7626 2.5C17.7644 2.5 17.7662 2.5 17.768 2.5C17.7698 2.5 17.7716 2.5 17.7734 2.5C17.7752 2.5 17.777 2.5 17.7788 2.5C17.7806 2.5 17.7823 2.5 17.7841 2.5C17.7858 2.5 17.7876 2.5 17.7893 2.5C17.791 2.5 17.7928 2.5 17.7945 2.5C17.7962 2.5 17.7979 2.5 17.7996 2.5C17.8013 2.5 17.803 2.5 17.8046 2.5C17.8063 2.5 17.808 2.5 17.8096 2.5C17.8113 2.5 17.8129 2.5 17.8146 2.5C17.8162 2.5 17.8178 2.5 17.8194 2.5C17.8211 2.5 17.8227 2.5 17.8243 2.5C17.8259 2.5 17.8274 2.5 17.829 2.5C17.8306 2.5 17.8322 2.5 17.8337 2.5C17.8353 2.5 17.8368 2.5 17.8383 2.5C17.8399 2.5 17.8414 2.5 17.8429 2.5C17.8444 2.5 17.8459 2.5 17.8474 2.5C17.8489 2.5 17.8504 2.5 17.8519 2.5C17.8533 2.5 17.8548 2.5 17.8563 2.5C17.8577 2.5 17.8592 2.5 17.8606 2.5C17.862 2.5 17.8634 2.5 17.8649 2.5C17.8663 2.5 17.8677 2.5 17.8691 2.5C17.8704 2.5 17.8718 2.5 17.8732 2.5C17.8746 2.5 17.8759 2.5 17.8773 2.5C17.8786 2.5 17.88 2.5 17.8813 2.5C17.8826 2.5 17.8839 2.5 17.8852 2.5C17.8865 2.5 17.8878 2.5 17.8891 2.5C17.8904 2.5 17.8917 2.5 17.8929 2.5C17.8942 2.5 17.8955 2.5 17.8967 2.5C17.898 2.5 17.8992 2.5 17.9004 2.5C17.9016 2.5 17.9028 2.5 17.904 2.5C17.9052 2.5 17.9064 2.5 17.9076 2.5C17.9088 2.5 17.91 2.5 17.9111 2.5C17.9123 2.5 17.9134 2.5 17.9146 2.5C17.9157 2.5 17.9168 2.5 17.9179 2.5C17.919 2.5 17.9202 2.5 17.9212 2.5C17.9223 2.5 17.9234 2.5 17.9245 2.5C17.9256 2.5 17.9266 2.5 17.9277 2.5C17.9287 2.5 17.9298 2.5 17.9308 2.5C17.9318 2.5 17.9328 2.5 17.9338 2.5C17.9348 2.5 17.9358 2.5 17.9368 2.5C17.9378 2.5 17.9388 2.5 17.9397 2.5C17.9407 2.5 17.9416 2.5 17.9426 2.5C17.9435 2.5 17.9445 2.5 17.9454 2.5C17.9463 2.5 17.9472 2.5 17.9481 2.5C17.949 2.5 17.9499 2.5 17.9507 2.5C17.9516 2.5 17.9525 2.5 17.9533 2.5C17.9542 2.5 17.955 2.5 17.9558 2.5C17.9567 2.5 17.9575 2.5 17.9583 2.5C17.9591 2.5 17.9599 2.5 17.9607 2.5C17.9615 2.5 17.9622 2.5 17.963 2.5C17.9637 2.5 17.9645 2.5 17.9652 2.5C17.966 2.5 17.9667 2.5 17.9674 2.5C17.9681 2.5 17.9688 2.5 17.9695 2.5C17.9702 2.5 17.9709 2.5 17.9716 2.5C17.9722 2.5 17.9729 2.5 17.9735 2.5C17.9742 2.5 17.9748 2.5 17.9754 2.5C17.9761 2.5 17.9767 2.5 17.9773 2.5C17.9779 2.5 17.9785 2.5 17.979 2.5C17.9796 2.5 17.9802 2.5 17.9807 2.5C17.9813 2.5 17.9818 2.5 17.9823 2.5C17.9829 2.5 17.9834 2.5 17.9839 2.5C17.9844 2.5 17.9849 2.5 17.9854 2.5C17.9859 2.5 17.9863 2.5 17.9868 2.5C17.9873 2.5 17.9877 2.5 17.9881 2.5C17.9886 2.5 17.989 2.5 17.9894 2.5C17.9898 2.5 17.9902 2.5 17.9906 2.5C17.991 2.5 17.9914 2.5 17.9917 2.5C17.9921 2.5 17.9925 2.5 17.9928 2.5C17.9931 2.5 17.9935 2.5 17.9938 2.5C17.9941 2.5 17.9944 2.5 17.9947 2.5C17.995 2.5 17.9953 2.5 17.9955 2.5C17.9958 2.5 17.9961 2.5 17.9963 2.5C17.9966 2.5 17.9968 2.5 17.997 2.5C17.9972 2.5 17.9974 2.5 17.9976 2.5C17.9978 2.5 17.998 2.5 17.9982 2.5C17.9984 2.5 17.9985 2.5 17.9987 2.5C17.9988 2.5 17.999 2.5 17.9991 2.5C17.9992 2.5 17.9993 2.5 17.9994 2.5C17.9995 2.5 17.9996 2.5 17.9997 2.5C17.9997 2.5 17.9998 2.5 17.9999 2.5C17.9999 2.5 17.9999 2.5 18 2.5C18 2.5 18 2.5 18 2C18 1.5 18 1.5 18 1.5C17.9999 1.5 17.9999 1.5 17.9999 1.5C17.9998 1.5 17.9997 1.5 17.9997 1.5C17.9996 1.5 17.9995 1.5 17.9994 1.5C17.9993 1.5 17.9992 1.5 17.9991 1.5C17.999 1.5 17.9988 1.5 17.9987 1.5C17.9985 1.5 17.9984 1.5 17.9982 1.5C17.998 1.5 17.9978 1.5 17.9976 1.5C17.9974 1.5 17.9972 1.5 17.997 1.5C17.9968 1.5 17.9966 1.5 17.9963 1.5C17.9961 1.5 17.9958 1.5 17.9955 1.5C17.9953 1.5 17.995 1.5 17.9947 1.5C17.9944 1.5 17.9941 1.5 17.9938 1.5C17.9935 1.5 17.9931 1.5 17.9928 1.5C17.9925 1.5 17.9921 1.5 17.9917 1.5C17.9914 1.5 17.991 1.5 17.9906 1.5C17.9902 1.5 17.9898 1.5 17.9894 1.5C17.989 1.5 17.9886 1.5 17.9881 1.5C17.9877 1.5 17.9873 1.5 17.9868 1.5C17.9863 1.5 17.9859 1.5 17.9854 1.5C17.9849 1.5 17.9844 1.5 17.9839 1.5C17.9834 1.5 17.9829 1.5 17.9823 1.5C17.9818 1.5 17.9813 1.5 17.9807 1.5C17.9802 1.5 17.9796 1.5 17.979 1.5C17.9785 1.5 17.9779 1.5 17.9773 1.5C17.9767 1.5 17.9761 1.5 17.9754 1.5C17.9748 1.5 17.9742 1.5 17.9735 1.5C17.9729 1.5 17.9722 1.5 17.9716 1.5C17.9709 1.5 17.9702 1.5 17.9695 1.5C17.9688 1.5 17.9681 1.5 17.9674 1.5C17.9667 1.5 17.966 1.5 17.9652 1.5C17.9645 1.5 17.9637 1.5 17.963 1.5C17.9622 1.5 17.9615 1.5 17.9607 1.5C17.9599 1.5 17.9591 1.5 17.9583 1.5C17.9575 1.5 17.9567 1.5 17.9558 1.5C17.955 1.5 17.9542 1.5 17.9533 1.5C17.9525 1.5 17.9516 1.5 17.9507 1.5C17.9499 1.5 17.949 1.5 17.9481 1.5C17.9472 1.5 17.9463 1.5 17.9454 1.5C17.9445 1.5 17.9435 1.5 17.9426 1.5C17.9416 1.5 17.9407 1.5 17.9397 1.5C17.9388 1.5 17.9378 1.5 17.9368 1.5C17.9358 1.5 17.9348 1.5 17.9338 1.5C17.9328 1.5 17.9318 1.5 17.9308 1.5C17.9298 1.5 17.9287 1.5 17.9277 1.5C17.9266 1.5 17.9256 1.5 17.9245 1.5C17.9234 1.5 17.9223 1.5 17.9212 1.5C17.9202 1.5 17.919 1.5 17.9179 1.5C17.9168 1.5 17.9157 1.5 17.9146 1.5C17.9134 1.5 17.9123 1.5 17.9111 1.5C17.91 1.5 17.9088 1.5 17.9076 1.5C17.9064 1.5 17.9052 1.5 17.904 1.5C17.9028 1.5 17.9016 1.5 17.9004 1.5C17.8992 1.5 17.898 1.5 17.8967 1.5C17.8955 1.5 17.8942 1.5 17.8929 1.5C17.8917 1.5 17.8904 1.5 17.8891 1.5C17.8878 1.5 17.8865 1.5 17.8852 1.5C17.8839 1.5 17.8826 1.5 17.8813 1.5C17.88 1.5 17.8786 1.5 17.8773 1.5C17.8759 1.5 17.8746 1.5 17.8732 1.5C17.8718 1.5 17.8704 1.5 17.8691 1.5C17.8677 1.5 17.8663 1.5 17.8649 1.5C17.8634 1.5 17.862 1.5 17.8606 1.5C17.8592 1.5 17.8577 1.5 17.8563 1.5C17.8548 1.5 17.8533 1.5 17.8519 1.5C17.8504 1.5 17.8489 1.5 17.8474 1.5C17.8459 1.5 17.8444 1.5 17.8429 1.5C17.8414 1.5 17.8399 1.5 17.8383 1.5C17.8368 1.5 17.8353 1.5 17.8337 1.5C17.8322 1.5 17.8306 1.5 17.829 1.5C17.8274 1.5 17.8259 1.5 17.8243 1.5C17.8227 1.5 17.8211 1.5 17.8194 1.5C17.8178 1.5 17.8162 1.5 17.8146 1.5C17.8129 1.5 17.8113 1.5 17.8096 1.5C17.808 1.5 17.8063 1.5 17.8046 1.5C17.803 1.5 17.8013 1.5 17.7996 1.5C17.7979 1.5 17.7962 1.5 17.7945 1.5C17.7928 1.5 17.791 1.5 17.7893 1.5C17.7876 1.5 17.7858 1.5 17.7841 1.5C17.7823 1.5 17.7806 1.5 17.7788 1.5C17.777 1.5 17.7752 1.5 17.7734 1.5C17.7716 1.5 17.7698 1.5 17.768 1.5C17.7662 1.5 17.7644 1.5 17.7626 1.5C17.7607 1.5 17.7589 1.5 17.757 1.5C17.7552 1.5 17.7533 1.5 17.7515 1.5C17.7496 1.5 17.7477 1.5 17.7458 1.5C17.7439 1.5 17.742 1.5 17.7401 1.5C17.7382 1.5 17.7363 1.5 17.7344 1.5C17.7324 1.5 17.7305 1.5 17.7286 1.5C17.7266 1.5 17.7246 1.5 17.7227 1.5C17.7207 1.5 17.7187 1.5 17.7168 1.5C17.7148 1.5 17.7128 1.5 17.7108 1.5C17.7088 1.5 17.7068 1.5 17.7047 1.5C17.7027 1.5 17.7007 1.5 17.6986 1.5C17.6966 1.5 17.6946 1.5 17.6925 1.5C17.6904 1.5 17.6884 1.5 17.6863 1.5C17.6842 1.5 17.6821 1.5 17.68 1.5C17.6779 1.5 17.6758 1.5 17.6737 1.5C17.6716 1.5 17.6695 1.5 17.6673 1.5C17.6652 1.5 17.6631 1.5 17.6609 1.5C17.6588 1.5 17.6566 1.5 17.6544 1.5C17.6523 1.5 17.6501 1.5 17.6479 1.5C17.6457 1.5 17.6435 1.5 17.6413 1.5C17.6391 1.5 17.6369 1.5 17.6347 1.5C17.6325 1.5 17.6302 1.5 17.628 1.5C17.6257 1.5 17.6235 1.5 17.6212 1.5C17.619 1.5 17.6167 1.5 17.6144 1.5C17.6122 1.5 17.6099 1.5 17.6076 1.5C17.6053 1.5 17.603 1.5 17.6007 1.5C17.5984 1.5 17.596 1.5 17.5937 1.5C17.5914 1.5 17.589 1.5 17.5867 1.5C17.5843 1.5 17.582 1.5 17.5796 1.5C17.5773 1.5 17.5749 1.5 17.5725 1.5C17.5701 1.5 17.5677 1.5 17.5653 1.5C17.5629 1.5 17.5605 1.5 17.5581 1.5C17.5557 1.5 17.5533 1.5 17.5508 1.5C17.5484 1.5 17.546 1.5 17.5435 1.5C17.541 1.5 17.5386 1.5 17.5361 1.5C17.5337 1.5 17.5312 1.5 17.5287 1.5C17.5262 1.5 17.5237 1.5 17.5212 1.5C17.5187 1.5 17.5162 1.5 17.5137 1.5C17.5112 1.5 17.5086 1.5 17.5061 1.5C17.5036 1.5 17.501 1.5 17.4985 1.5C17.4959 1.5 17.4934 1.5 17.4908 1.5C17.4882 1.5 17.4856 1.5 17.4831 1.5C17.4805 1.5 17.4779 1.5 17.4753 1.5C17.4727 1.5 17.4701 1.5 17.4674 1.5C17.4648 1.5 17.4622 1.5 17.4596 1.5C17.4569 1.5 17.4543 1.5 17.4516 1.5C17.449 1.5 17.4463 1.5 17.4437 1.5C17.441 1.5 17.4383 1.5 17.4356 1.5C17.4329 1.5 17.4302 1.5 17.4275 1.5C17.4248 1.5 17.4221 1.5 17.4194 1.5C17.4167 1.5 17.414 1.5 17.4113 1.5C17.4085 1.5 17.4058 1.5 17.403 1.5C17.4003 1.5 17.3975 1.5 17.3948 1.5C17.392 1.5 17.3892 1.5 17.3864 1.5C17.3837 1.5 17.3809 1.5 17.3781 1.5C17.3753 1.5 17.3725 1.5 17.3697 1.5C17.3669 1.5 17.364 1.5 17.3612 1.5C17.3584 1.5 17.3556 1.5 17.3527 1.5C17.3499 1.5 17.347 1.5 17.3442 1.5C17.3413 1.5 17.3384 1.5 17.3356 1.5C17.3327 1.5 17.3298 1.5 17.3269 1.5C17.324 1.5 17.3211 1.5 17.3182 1.5C17.3153 1.5 17.3124 1.5 17.3095 1.5C17.3066 1.5 17.3037 1.5 17.3007 1.5C17.2978 1.5 17.2948 1.5 17.2919 1.5C17.289 1.5 17.286 1.5 17.283 1.5C17.2801 1.5 17.2771 1.5 17.2741 1.5C17.2711 1.5 17.2681 1.5 17.2652 1.5C17.2622 1.5 17.2592 1.5 17.2561 1.5C17.2531 1.5 17.2501 1.5 17.2471 1.5C17.2441 1.5 17.241 1.5 17.238 1.5C17.235 1.5 17.2319 1.5 17.2289 1.5C17.2258 1.5 17.2228 1.5 17.2197 1.5C17.2166 1.5 17.2135 1.5 17.2105 1.5C17.2074 1.5 17.2043 1.5 17.2012 1.5C17.1981 1.5 17.195 1.5 17.1919 1.5C17.1888 1.5 17.1857 1.5 17.1825 1.5C17.1794 1.5 17.1763 1.5 17.1731 1.5C17.17 1.5 17.1668 1.5 17.1637 1.5C17.1605 1.5 17.1574 1.5 17.1542 1.5C17.151 1.5 17.1479 1.5 17.1447 1.5C17.1415 1.5 17.1383 1.5 17.1351 1.5C17.1319 1.5 17.1287 1.5 17.1255 1.5C17.1223 1.5 17.1191 1.5 17.1159 1.5C17.1126 1.5 17.1094 1.5 17.1062 1.5C17.1029 1.5 17.0997 1.5 17.0964 1.5C17.0932 1.5 17.0899 1.5 17.0867 1.5C17.0834 1.5 17.0801 1.5 17.0769 1.5C17.0736 1.5 17.0703 1.5 17.067 1.5C17.0637 1.5 17.0604 1.5 17.0571 1.5C17.0538 1.5 17.0505 1.5 17.0472 1.5C17.0438 1.5 17.0405 1.5 17.0372 1.5C17.0339 1.5 17.0305 1.5 17.0272 1.5C17.0238 1.5 17.0205 1.5 17.0171 1.5C17.0138 1.5 17.0104 1.5 17.007 1.5C17.0037 1.5 17.0003 1.5 16.9969 1.5C16.9935 1.5 16.9901 1.5 16.9867 1.5C16.9833 1.5 16.9799 1.5 16.9765 1.5C16.9731 1.5 16.9697 1.5 16.9663 1.5C16.9628 1.5 16.9594 1.5 16.956 1.5C16.9525 1.5 16.9491 1.5 16.9456 1.5C16.9422 1.5 16.9387 1.5 16.9353 1.5C16.9318 1.5 16.9284 1.5 16.9249 1.5C16.9214 1.5 16.9179 1.5 16.9144 1.5C16.9109 1.5 16.9075 1.5 16.904 1.5C16.9005 1.5 16.897 1.5 16.8934 1.5C16.8899 1.5 16.8864 1.5 16.8829 1.5C16.8794 1.5 16.8758 1.5 16.8723 1.5C16.8688 1.5 16.8652 1.5 16.8617 1.5C16.8581 1.5 16.8546 1.5 16.851 1.5C16.8475 1.5 16.8439 1.5 16.8403 1.5C16.8367 1.5 16.8332 1.5 16.8296 1.5C16.826 1.5 16.8224 1.5 16.8188 1.5C16.8152 1.5 16.8116 1.5 16.808 1.5C16.8044 1.5 16.8008 1.5 16.7972 1.5C16.7935 1.5 16.7899 1.5 16.7863 1.5C16.7827 1.5 16.779 1.5 16.7754 1.5C16.7717 1.5 16.7681 1.5 16.7644 1.5C16.7608 1.5 16.7571 1.5 16.7534 1.5C16.7498 1.5 16.7461 1.5 16.7424 1.5C16.7388 1.5 16.7351 1.5 16.7314 1.5C16.7277 1.5 16.724 1.5 16.7203 1.5C16.7166 1.5 16.7129 1.5 16.7092 1.5C16.7055 1.5 16.7017 1.5 16.698 1.5C16.6943 1.5 16.6906 1.5 16.6868 1.5C16.6831 1.5 16.6794 1.5 16.6756 1.5C16.6719 1.5 16.6681 1.5 16.6644 1.5C16.6606 1.5 16.6568 1.5 16.6531 1.5C16.6493 1.5 16.6455 1.5 16.6418 1.5C16.638 1.5 16.6342 1.5 16.6304 1.5C16.6266 1.5 16.6228 1.5 16.619 1.5C16.6152 1.5 16.6114 1.5 16.6076 1.5C16.6038 1.5 16.6 1.5 16.5962 1.5C16.5923 1.5 16.5885 1.5 16.5847 1.5C16.5809 1.5 16.577 1.5 16.5732 1.5C16.5693 1.5 16.5655 1.5 16.5616 1.5C16.5578 1.5 16.5539 1.5 16.5501 1.5C16.5462 1.5 16.5423 1.5 16.5385 1.5C16.5346 1.5 16.5307 1.5 16.5268 1.5C16.5229 1.5 16.5191 1.5 16.5152 1.5C16.5113 1.5 16.5074 1.5 16.5035 1.5C16.4996 1.5 16.4957 1.5 16.4917 1.5C16.4878 1.5 16.4839 1.5 16.48 1.5C16.4761 1.5 16.4721 1.5 16.4682 1.5C16.4643 1.5 16.4603 1.5 16.4564 1.5C16.4524 1.5 16.4485 1.5 16.4445 1.5C16.4406 1.5 16.4366 1.5 16.4327 1.5C16.4287 1.5 16.4247 1.5 16.4208 1.5C16.4168 1.5 16.4128 1.5 16.4088 1.5C16.4049 1.5 16.4009 1.5 16.3969 1.5C16.3929 1.5 16.3889 1.5 16.3849 1.5C16.3809 1.5 16.3769 1.5 16.3729 1.5C16.3689 1.5 16.3649 1.5 16.3608 1.5C16.3568 1.5 16.3528 1.5 16.3488 1.5C16.3447 1.5 16.3407 1.5 16.3367 1.5C16.3326 1.5 16.3286 1.5 16.3245 1.5C16.3205 1.5 16.3164 1.5 16.3124 1.5C16.3083 1.5 16.3043 1.5 16.3002 1.5C16.2961 1.5 16.2921 1.5 16.288 1.5C16.2839 1.5 16.2798 1.5 16.2758 1.5C16.2717 1.5 16.2676 1.5 16.2635 1.5C16.2594 1.5 16.2553 1.5 16.2512 1.5C16.2471 1.5 16.243 1.5 16.2389 1.5C16.2348 1.5 16.2307 1.5 16.2266 1.5C16.2224 1.5 16.2183 1.5 16.2142 1.5C16.2101 1.5 16.2059 1.5 16.2018 1.5C16.1977 1.5 16.1935 1.5 16.1894 1.5C16.1852 1.5 16.1811 1.5 16.177 1.5C16.1728 1.5 16.1686 1.5 16.1645 1.5C16.1603 1.5 16.1562 1.5 16.152 1.5C16.1478 1.5 16.1437 1.5 16.1395 1.5C16.1353 1.5 16.1311 1.5 16.1269 1.5C16.1228 1.5 16.1186 1.5 16.1144 1.5C16.1102 1.5 16.106 1.5 16.1018 1.5C16.0976 1.5 16.0934 1.5 16.0892 1.5C16.085 1.5 16.0808 1.5 16.0766 1.5C16.0723 1.5 16.0681 1.5 16.0639 1.5C16.0597 1.5 16.0554 1.5 16.0512 1.5C16.047 1.5 16.0428 1.5 16.0385 1.5C16.0343 1.5 16.03 1.5 16.0258 1.5C16.0215 1.5 16.0173 1.5 16.013 1.5C16.0088 1.5 16.0045 1.5 16.0003 1.5C15.996 1.5 15.9918 1.5 15.9875 1.5C15.9832 1.5 15.9789 1.5 15.9747 1.5C15.9704 1.5 15.9661 1.5 15.9618 1.5C15.9576 1.5 15.9533 1.5 15.949 1.5C15.9447 1.5 15.9404 1.5 15.9361 1.5C15.9318 1.5 15.9275 1.5 15.9232 1.5C15.9189 1.5 15.9146 1.5 15.9103 1.5C15.906 1.5 15.9017 1.5 15.8973 1.5C15.893 1.5 15.8887 1.5 15.8844 1.5C15.8801 1.5 15.8757 1.5 15.8714 1.5C15.8671 1.5 15.8627 1.5 15.8584 1.5C15.8541 1.5 15.8497 1.5 15.8454 1.5C15.841 1.5 15.8367 1.5 15.8323 1.5C15.828 1.5 15.8236 1.5 15.8193 1.5C15.8149 1.5 15.8106 1.5 15.8062 1.5C15.8018 1.5 15.7975 1.5 15.7931 1.5C15.7887 1.5 15.7844 1.5 15.78 1.5C15.7756 1.5 15.7712 1.5 15.7668 1.5C15.7625 1.5 15.7581 1.5 15.7537 1.5C15.7493 1.5 15.7449 1.5 15.7405 1.5C15.7361 1.5 15.7317 1.5 15.7273 1.5C15.7229 1.5 15.7185 1.5 15.7141 1.5C15.7097 1.5 15.7053 1.5 15.7009 1.5C15.6965 1.5 15.6921 1.5 15.6876 1.5C15.6832 1.5 15.6788 1.5 15.6744 1.5C15.67 1.5 15.6655 1.5 15.6611 1.5C15.6567 1.5 15.6522 1.5 15.6478 1.5C15.6434 1.5 15.6389 1.5 15.6345 1.5C15.6301 1.5 15.6256 1.5 15.6212 1.5C15.6167 1.5 15.6123 1.5 15.6078 1.5C15.6034 1.5 15.5989 1.5 15.5945 1.5C15.59 1.5 15.5855 1.5 15.5811 1.5C15.5766 1.5 15.5722 1.5 15.5677 1.5C15.5632 1.5 15.5588 1.5 15.5543 1.5C15.5498 1.5 15.5453 1.5 15.5409 1.5C15.5364 1.5 15.5319 1.5 15.5274 1.5C15.5229 1.5 15.5185 1.5 15.514 1.5C15.5095 1.5 15.505 1.5 15.5005 1.5C15.496 1.5 15.4915 1.5 15.487 1.5C15.4825 1.5 15.478 1.5 15.4735 1.5C15.469 1.5 15.4645 1.5 15.46 1.5C15.4555 1.5 15.451 1.5 15.4465 1.5C15.442 1.5 15.4375 1.5 15.4329 1.5C15.4284 1.5 15.4239 1.5 15.4194 1.5C15.4149 1.5 15.4103 1.5 15.4058 1.5C15.4013 1.5 15.3968 1.5 15.3922 1.5C15.3877 1.5 15.3832 1.5 15.3786 1.5C15.3741 1.5 15.3696 1.5 15.365 1.5C15.3605 1.5 15.356 1.5 15.3514 1.5C15.3469 1.5 15.3423 1.5 15.3378 1.5C15.3332 1.5 15.3287 1.5 15.3241 1.5C15.3196 1.5 15.315 1.5 15.3105 1.5C15.3059 1.5 15.3014 1.5 15.2968 1.5C15.2923 1.5 15.2877 1.5 15.2831 1.5C15.2786 1.5 15.274 1.5 15.2695 1.5C15.2649 1.5 15.2603 1.5 15.2558 1.5C15.2512 1.5 15.2466 1.5 15.242 1.5C15.2375 1.5 15.2329 1.5 15.2283 1.5C15.2237 1.5 15.2192 1.5 15.2146 1.5C15.21 1.5 15.2054 1.5 15.2008 1.5C15.1963 1.5 15.1917 1.5 15.1871 1.5C15.1825 1.5 15.1779 1.5 15.1733 1.5C15.1687 1.5 15.1642 1.5 15.1596 1.5C15.155 1.5 15.1504 1.5 15.1458 1.5C15.1412 1.5 15.1366 1.5 15.132 1.5C15.1274 1.5 15.1228 1.5 15.1182 1.5C15.1136 1.5 15.109 1.5 15.1044 1.5C15.0998 1.5 15.0952 1.5 15.0905 1.5C15.0859 1.5 15.0813 1.5 15.0767 1.5C15.0721 1.5 15.0675 1.5 15.0629 1.5C15.0583 1.5 15.0537 1.5 15.049 1.5C15.0444 1.5 15.0398 1.5 15.0352 1.5C15.0306 1.5 15.0259 1.5 15.0213 1.5C15.0167 1.5 15.0121 1.5 15.0075 1.5C15.0028 1.5 14.9982 1.5 14.9936 1.5C14.989 1.5 14.9843 1.5 14.9797 1.5C14.9751 1.5 14.9704 1.5 14.9658 1.5C14.9612 1.5 14.9565 1.5 14.9519 1.5C14.9473 1.5 14.9426 1.5 14.938 1.5C14.9334 1.5 14.9287 1.5 14.9241 1.5C14.9195 1.5 14.9148 1.5 14.9102 1.5C14.9055 1.5 14.9009 1.5 14.8963 1.5C14.8916 1.5 14.887 1.5 14.8823 1.5C14.8777 1.5 14.873 1.5 14.8684 1.5C14.8638 1.5 14.8591 1.5 14.8545 1.5C14.8498 1.5 14.8452 1.5 14.8405 1.5C14.8359 1.5 14.8312 1.5 14.8266 1.5C14.8219 1.5 14.8173 1.5 14.8126 1.5C14.808 1.5 14.8033 1.5 14.7987 1.5C14.794 1.5 14.7893 1.5 14.7847 1.5C14.78 1.5 14.7754 1.5 14.7707 1.5C14.7661 1.5 14.7614 1.5 14.7567 1.5C14.7521 1.5 14.7474 1.5 14.7428 1.5C14.7381 1.5 14.7335 1.5 14.7288 1.5C14.7241 1.5 14.7195 1.5 14.7148 1.5C14.7101 1.5 14.7055 1.5 14.7008 1.5C14.6962 1.5 14.6915 1.5 14.6868 1.5C14.6822 1.5 14.6775 1.5 14.6728 1.5C14.6682 1.5 14.6635 1.5 14.6588 1.5C14.6542 1.5 14.6495 1.5 14.6448 1.5C14.6402 1.5 14.6355 1.5 14.6308 1.5C14.6262 1.5 14.6215 1.5 14.6168 1.5C14.6122 1.5 14.6075 1.5 14.6028 1.5C14.5982 1.5 14.5935 1.5 14.5888 1.5C14.5842 1.5 14.5795 1.5 14.5748 1.5C14.5702 1.5 14.5655 1.5 14.5608 1.5C14.5562 1.5 14.5515 1.5 14.5468 1.5C14.5421 1.5 14.5375 1.5 14.5328 1.5C14.5281 1.5 14.5235 1.5 14.5188 1.5C14.5141 1.5 14.5094 1.5 14.5048 1.5C14.5001 1.5 14.4954 1.5 14.4908 1.5C14.4861 1.5 14.4814 1.5 14.4768 1.5C14.4721 1.5 14.4674 1.5 14.4627 1.5C14.4581 1.5 14.4534 1.5 14.4487 1.5C14.4441 1.5 14.4394 1.5 14.4347 1.5C14.43 1.5 14.4254 1.5 14.4207 1.5C14.416 1.5 14.4114 1.5 14.4067 1.5C14.402 1.5 14.3974 1.5 14.3927 1.5C14.388 1.5 14.3833 1.5 14.3787 1.5C14.374 1.5 14.3693 1.5 14.3647 1.5C14.36 1.5 14.3553 1.5 14.3507 1.5C14.346 1.5 14.3413 1.5 14.3367 1.5C14.332 1.5 14.3273 1.5 14.3227 1.5C14.318 1.5 14.3133 1.5 14.3087 1.5C14.304 1.5 14.2993 1.5 14.2947 1.5C14.29 1.5 14.2853 1.5 14.2807 1.5C14.276 1.5 14.2714 1.5 14.2667 1.5C14.262 1.5 14.2574 1.5 14.2527 1.5C14.248 1.5 14.2434 1.5 14.2387 1.5C14.2341 1.5 14.2294 1.5 14.2247 1.5C14.2201 1.5 14.2154 1.5 14.2108 1.5C14.2061 1.5 14.2014 1.5 14.1968 1.5C14.1921 1.5 14.1875 1.5 14.1828 1.5C14.1782 1.5 14.1735 1.5 14.1688 1.5C14.1642 1.5 14.1595 1.5 14.1549 1.5C14.1502 1.5 14.1456 1.5 14.1409 1.5C14.1363 1.5 14.1316 1.5 14.127 1.5C14.1223 1.5 14.1177 1.5 14.113 1.5C14.1084 1.5 14.1037 1.5 14.0991 1.5C14.0944 1.5 14.0898 1.5 14.0852 1.5C14.0805 1.5 14.0759 1.5 14.0712 1.5C14.0666 1.5 14.0619 1.5 14.0573 1.5C14.0527 1.5 14.048 1.5 14.0434 1.5C14.0387 1.5 14.0341 1.5 14.0295 1.5C14.0248 1.5 14.0202 1.5 14.0156 1.5C14.0109 1.5 14.0063 1.5 14.0017 1.5C13.997 1.5 13.9924 1.5 13.9878 1.5C13.9831 1.5 13.9785 1.5 13.9739 1.5C13.9693 1.5 13.9646 1.5 13.96 1.5C13.9554 1.5 13.9508 1.5 13.9461 1.5C13.9415 1.5 13.9369 1.5 13.9323 1.5C13.9277 1.5 13.923 1.5 13.9184 1.5C13.9138 1.5 13.9092 1.5 13.9046 1.5C13.9 1.5 13.8953 1.5 13.8907 1.5C13.8861 1.5 13.8815 1.5 13.8769 1.5C13.8723 1.5 13.8677 1.5 13.8631 1.5C13.8585 1.5 13.8539 1.5 13.8493 1.5C13.8447 1.5 13.8401 1.5 13.8355 1.5C13.8309 1.5 13.8263 1.5 13.8217 1.5C13.8171 1.5 13.8125 1.5 13.8079 1.5C13.8033 1.5 13.7987 1.5 13.7941 1.5C13.7895 1.5 13.7849 1.5 13.7803 1.5C13.7757 1.5 13.7712 1.5 13.7666 1.5C13.762 1.5 13.7574 1.5 13.7528 1.5C13.7482 1.5 13.7437 1.5 13.7391 1.5C13.7345 1.5 13.7299 1.5 13.7254 1.5C13.7208 1.5 13.7162 1.5 13.7117 1.5C13.7071 1.5 13.7025 1.5 13.6979 1.5C13.6934 1.5 13.6888 1.5 13.6843 1.5C13.6797 1.5 13.6751 1.5 13.6706 1.5C13.666 1.5 13.6615 1.5 13.6569 1.5C13.6523 1.5 13.6478 1.5 13.6432 1.5C13.6387 1.5 13.6341 1.5 13.6296 1.5C13.625 1.5 13.6205 1.5 13.616 1.5C13.6114 1.5 13.6069 1.5 13.6023 1.5C13.5978 1.5 13.5933 1.5 13.5887 1.5C13.5842 1.5 13.5797 1.5 13.5751 1.5C13.5706 1.5 13.5661 1.5 13.5615 1.5C13.557 1.5 13.5525 1.5 13.548 1.5C13.5435 1.5 13.5389 1.5 13.5344 1.5C13.5299 1.5 13.5254 1.5 13.5209 1.5C13.5164 1.5 13.5118 1.5 13.5073 1.5C13.5028 1.5 13.4983 1.5 13.4938 1.5C13.4893 1.5 13.4848 1.5 13.4803 1.5C13.4758 1.5 13.4713 1.5 13.4668 1.5C13.4623 1.5 13.4578 1.5 13.4534 1.5C13.4489 1.5 13.4444 1.5 13.4399 1.5C13.4354 1.5 13.4309 1.5 13.4265 1.5C13.422 1.5 13.4175 1.5 13.413 1.5C13.4086 1.5 13.4041 1.5 13.3996 1.5C13.3951 1.5 13.3907 1.5 13.3862 1.5C13.3817 1.5 13.3773 1.5 13.3728 1.5C13.3684 1.5 13.3639 1.5 13.3595 1.5C13.355 1.5 13.3506 1.5 13.3461 1.5C13.3417 1.5 13.3372 1.5 13.3328 1.5C13.3283 1.5 13.3239 1.5 13.3195 1.5C13.315 1.5 13.3106 1.5 13.3062 1.5C13.3017 1.5 13.2973 1.5 13.2929 1.5C13.2884 1.5 13.284 1.5 13.2796 1.5C13.2752 1.5 13.2708 1.5 13.2664 1.5C13.2619 1.5 13.2575 1.5 13.2531 1.5C13.2487 1.5 13.2443 1.5 13.2399 1.5C13.2355 1.5 13.2311 1.5 13.2267 1.5C13.2223 1.5 13.2179 1.5 13.2135 1.5C13.2091 1.5 13.2047 1.5 13.2004 1.5C13.196 1.5 13.1916 1.5 13.1872 1.5C13.1828 1.5 13.1785 1.5 13.1741 1.5C13.1697 1.5 13.1654 1.5 13.161 1.5C13.1566 1.5 13.1523 1.5 13.1479 1.5C13.1435 1.5 13.1392 1.5 13.1348 1.5C13.1305 1.5 13.1261 1.5 13.1218 1.5C13.1174 1.5 13.1131 1.5 13.1088 1.5C13.1044 1.5 13.1001 1.5 13.0958 1.5C13.0914 1.5 13.0871 1.5 13.0828 1.5C13.0784 1.5 13.0741 1.5 13.0698 1.5C13.0655 1.5 13.0612 1.5 13.0568 1.5C13.0525 1.5 13.0482 1.5 13.0439 1.5C13.0396 1.5 13.0353 1.5 13.031 1.5C13.0267 1.5 13.0224 1.5 13.0181 1.5C13.0138 1.5 13.0096 1.5 13.0053 1.5C13.001 1.5 12.9967 1.5 12.9924 1.5C12.9881 1.5 12.9839 1.5 12.9796 1.5C12.9753 1.5 12.9711 1.5 12.9668 1.5C12.9625 1.5 12.9583 1.5 12.954 1.5C12.9498 1.5 12.9455 1.5 12.9413 1.5C12.937 1.5 12.9328 1.5 12.9285 1.5C12.9243 1.5 12.9201 1.5 12.9158 1.5C12.9116 1.5 12.9074 1.5 12.9031 1.5C12.8989 1.5 12.8947 1.5 12.8905 1.5C12.8863 1.5 12.882 1.5 12.8778 1.5C12.8736 1.5 12.8694 1.5 12.8652 1.5C12.861 1.5 12.8568 1.5 12.8526 1.5C12.8484 1.5 12.8442 1.5 12.8401 1.5C12.8359 1.5 12.8317 1.5 12.8275 1.5C12.8233 1.5 12.8192 1.5 12.815 1.5C12.8108 1.5 12.8066 1.5 12.8025 1.5C12.7983 1.5 12.7942 1.5 12.79 1.5C12.7859 1.5 12.7817 1.5 12.7776 1.5C12.7734 1.5 12.7693 1.5 12.7651 1.5C12.761 1.5 12.7569 1.5 12.7527 1.5C12.7486 1.5 12.7445 1.5 12.7404 1.5C12.7362 1.5 12.7321 1.5 12.728 1.5C12.7239 1.5 12.7198 1.5 12.7157 1.5C12.7116 1.5 12.7075 1.5 12.7034 1.5C12.6993 1.5 12.6952 1.5 12.6911 1.5C12.687 1.5 12.683 1.5 12.6789 1.5C12.6748 1.5 12.6707 1.5 12.6667 1.5V2.5ZM17.5 2V7.33333H18.5V2H17.5ZM8.57578 12.1313L18.3536 2.35355L17.6464 1.64645L7.86867 11.4242L8.57578 12.1313Z" fill="#222222"/>
</svg>
