<svg width="20" height="20" viewBox="0 0 20 20" fill="none" xmlns="http://www.w3.org/2000/svg">
<path d="M10.9128 8.36879C10.6336 8.22695 10.2899 8.1459 9.90336 8.1459C9.62416 8.1459 9.36644 8.18642 9.1302 8.26748C8.89396 8.34853 8.70067 8.47011 8.55034 8.63222C8.4 8.79433 8.27114 8.99696 8.18524 9.21986C8.09933 9.46302 8.05638 9.70618 8.05638 9.98987C8.05638 10.2533 8.09933 10.5167 8.18524 10.7396C8.27114 10.9625 8.37852 11.1651 8.55034 11.3273C8.70067 11.4894 8.89396 11.6109 9.1302 11.7123C9.36644 11.7933 9.62416 11.8541 9.92483 11.8541C10.2255 11.8541 10.4832 11.8136 10.7195 11.7325C10.9557 11.6515 11.149 11.5096 11.2993 11.3475C11.4497 11.1854 11.5785 10.9828 11.6644 10.7599C11.7503 10.537 11.7933 10.2938 11.7933 10.0101C11.7933 9.64539 11.7289 9.32117 11.5785 9.03749C11.4067 8.73354 11.1919 8.51064 10.9128 8.36879ZM10.8483 10.6991C10.7409 10.9017 10.6121 11.0436 10.4617 11.1246C10.2899 11.2259 10.1181 11.2665 9.92483 11.2665C9.7745 11.2665 9.62416 11.2462 9.4953 11.1854C9.36644 11.1246 9.25906 11.0436 9.15168 10.9422C9.0443 10.8409 8.97987 10.6991 8.91544 10.537C8.87248 10.3749 8.82953 10.1925 8.82953 9.98987C8.82953 9.78723 8.85101 9.60486 8.91544 9.44276C8.97987 9.28065 9.04429 9.1388 9.1302 9.03749C9.21611 8.93617 9.34497 8.85512 9.47383 8.79433C9.60269 8.73354 9.75302 8.71327 9.90336 8.71327C10.1181 8.71327 10.3114 8.7538 10.4832 8.85512C10.655 8.95643 10.7839 9.09828 10.8698 9.28065C10.9557 9.46302 10.9987 9.70618 10.9987 9.96961C10.9987 10.2533 10.9342 10.4965 10.8483 10.6991Z" fill="#222222"/>
<path d="M17.957 3.99189L17.9356 3.97163V3.95137L13.8336 0.0810537C13.8336 0.0810537 13.8121 0.0810537 13.8121 0.0607903C13.8121 0.0607903 13.7906 0.0607903 13.7906 0.0405268C13.7262 0 13.6617 0 13.5758 0H3.4604C3.05235 0 2.68725 0.162107 2.42953 0.405268C2.17181 0.64843 2 1.01317 2 1.37791V18.6221C2 18.9868 2.15034 19.3313 2.40805 19.5745L2.42953 19.5947C2.68725 19.8379 3.07383 20 3.4604 20H16.5396C16.9477 20 17.3128 19.8379 17.5705 19.5947C17.8282 19.3516 18 18.9868 18 18.6221V4.19453C18 4.11348 17.9785 4.05268 17.957 3.99189ZM13.9839 1.45897L16.4107 3.74873H14.6282C14.4564 3.74873 14.2846 3.68794 14.1772 3.56636C14.0698 3.46505 13.9839 3.30294 13.9839 3.14083V1.45897ZM17.0765 18.6221C17.0765 18.7639 17.0121 18.8855 16.9047 18.9868C16.7973 19.0881 16.6685 19.1489 16.5181 19.1489H3.4604C3.31007 19.1489 3.18121 19.0881 3.07383 18.9868L3.05235 18.9666C2.96644 18.8652 2.90201 18.7437 2.90201 18.6221V1.35765C2.90201 1.21581 2.96644 1.09422 3.07383 0.992908C3.18121 0.891591 3.31007 0.8308 3.4604 0.8308H13.0819V3.12057C13.0819 3.52584 13.2537 3.89058 13.5544 4.17427C13.8336 4.43769 14.2416 4.5998 14.6711 4.5998H17.0765V18.6221Z" fill="#222222"/>
<path d="M13.3611 8.26748C13.1463 8.34853 12.953 8.47011 12.7812 8.63222C12.6094 8.79433 12.4805 8.99696 12.3946 9.21986C12.3087 9.44276 12.2658 9.70618 12.2658 9.98987C12.2658 10.1722 12.2872 10.3343 12.3087 10.4965C12.3517 10.6586 12.3946 10.8004 12.4591 10.9422C12.5235 11.0841 12.6094 11.2057 12.7168 11.3273C12.8242 11.4488 12.953 11.5502 13.0819 11.6312C13.2107 11.7123 13.3611 11.7528 13.5329 11.7933C13.7047 11.8338 13.8765 11.8541 14.0698 11.8541C14.3275 11.8541 14.5638 11.8136 14.757 11.7325C14.9503 11.6515 15.1221 11.5502 15.251 11.4286C15.3799 11.307 15.4658 11.1651 15.5302 11.0436C15.5946 10.9017 15.6161 10.7801 15.6161 10.6788C15.6161 10.5978 15.5732 10.5167 15.5087 10.4559C15.4443 10.3951 15.3584 10.3749 15.2725 10.3749C15.1651 10.3749 15.0792 10.3951 15.0362 10.4559C14.9933 10.5167 14.9503 10.5978 14.9074 10.6788C14.8215 10.8815 14.7141 11.0233 14.5638 11.1246C14.4134 11.2259 14.2201 11.2867 14.0054 11.2867C13.8121 11.2867 13.6188 11.2462 13.4685 11.1449C13.3181 11.0436 13.1893 10.922 13.1248 10.7396C13.0389 10.5572 12.996 10.3343 12.996 10.0507C12.996 9.64539 13.0819 9.32118 13.2752 9.09828C13.4685 8.87538 13.7047 8.7538 14.0268 8.7538C14.2201 8.7538 14.3919 8.79433 14.5208 8.87538C14.6497 8.95643 14.7785 9.09828 14.8644 9.28065C14.9289 9.38197 14.9718 9.46302 15.0362 9.50355C15.0792 9.54407 15.1651 9.56434 15.251 9.56434C15.3369 9.56434 15.4228 9.52381 15.4658 9.46302C15.5302 9.40223 15.5517 9.32117 15.5517 9.24012C15.5517 9.09828 15.4872 8.93617 15.3584 8.7538C15.2295 8.59169 15.0577 8.44985 14.8 8.32827C14.5638 8.20669 14.2846 8.1459 13.9839 8.1459C13.8336 8.1459 13.5973 8.18642 13.3611 8.26748Z" fill="#222222"/>
<path d="M6.98255 8.5309C6.83221 8.40932 6.6604 8.32827 6.46711 8.26748C6.27383 8.22695 6.05906 8.20669 5.80134 8.20669H4.81342C4.64161 8.20669 4.53423 8.24721 4.44832 8.308C4.38389 8.36879 4.34094 8.49037 4.34094 8.65248V11.2665C4.34094 11.388 4.34094 11.4691 4.38389 11.5502C4.40537 11.6312 4.44832 11.6717 4.51275 11.7123C4.57718 11.7528 4.68456 11.773 4.8349 11.773H5.82282C5.99463 11.773 6.14497 11.7528 6.2953 11.7325C6.42416 11.7123 6.55302 11.6717 6.68188 11.6312C6.81074 11.5704 6.91812 11.5096 7.00403 11.4286C7.13289 11.307 7.24027 11.1854 7.32617 11.0436C7.41208 10.9017 7.47651 10.7396 7.51946 10.5572C7.56242 10.3749 7.58389 10.1925 7.58389 9.96961C7.56242 9.34144 7.36913 8.85512 6.98255 8.5309ZM6.40268 11.0233C6.33825 11.0638 6.27383 11.1044 6.2094 11.1246C6.12349 11.1449 6.05906 11.1651 5.99463 11.1651C5.9302 11.1651 5.82282 11.1651 5.69396 11.1651H5.11409V8.77406H5.62953C5.86577 8.77406 6.05906 8.79433 6.23087 8.85512C6.40268 8.89564 6.53154 9.01722 6.63893 9.1996C6.74631 9.38197 6.81074 9.64539 6.81074 9.98987C6.78926 10.4762 6.6604 10.8207 6.40268 11.0233Z" fill="#222222"/>
</svg>
