<svg width="48" height="48" viewBox="0 0 48 48" fill="none" xmlns="http://www.w3.org/2000/svg">
<path d="M24 48C37.2548 48 48 37.2548 48 24C48 10.7452 37.2548 0 24 0C10.7452 0 0 10.7452 0 24C0 37.2548 10.7452 48 24 48Z" fill="white"/>
<path fill-rule="evenodd" clip-rule="evenodd" d="M30.5117 12.7309C28.3652 11.9344 28.3048 11.9564 27.2839 13.9218C26.9629 14.5399 26.5233 15.3861 25.8714 16.4689C21.952 22.9812 13.6345 25.2262 13.2419 25.3284C10.7382 25.3305 9.0627 25.8303 8.26234 26.8148C7.77024 27.4199 7.77983 28.0164 7.80068 28.218C7.38816 28.5992 7.18633 28.9875 7.20071 29.3725C7.21917 29.8774 7.60557 30.1782 7.61779 30.1871C7.71247 30.2668 10.0972 32.1425 23.7723 32.563C25.4979 32.6159 27.0732 32.6391 28.5088 32.6391C38.4359 32.6391 41.6857 31.5345 41.7219 31.522L41.8006 31.4269C42.1982 28.8798 41.9271 27.9653 41.6299 27.6466C41.5685 27.5809 41.5079 27.542 41.4554 27.5191C41.6189 26.8103 41.5848 25.6992 41.4554 24.2391L27.754 23.7673C27.754 23.7673 32.2579 18.0174 35.3428 14.2666C33.0259 13.6623 31.5362 13.1109 30.5117 12.7309Z" fill="#FFCC66"/>
<path d="M18.216 22.3977L21.636 25.0353M5.519 28.5583C5.519 28.5583 5.08568 25.8087 10.9758 25.8087C10.9758 25.8087 19.4515 23.5567 23.519 16.7983C27.5865 10.0408 23.3657 12.9968 37.1563 15.6719C37.1563 15.6719 37.9652 15.7128 37.919 16.5583C37.8716 17.4027 39.6347 25.9026 39.027 27.9664C39.027 27.9664 40.0082 27.8735 39.4003 31.7673C39.4003 31.7673 35.2866 33.2237 21.495 32.8015C7.70428 32.3773 5.4137 30.4537 5.4137 30.4537C5.4137 30.4537 4.30336 29.6383 5.519 28.5583ZM24.935 14.525C24.935 14.525 26.9969 15.2794 29.1593 13.7705L24.935 14.525ZM5.999 28.492C5.999 28.492 26.9318 31.7375 39.119 27.8383L5.999 28.492ZM38.2438 16.3269C38.2438 16.3269 40.993 16.3144 38.5995 20.4556L38.2438 16.3269ZM23.6554 16.8669L28.3471 20.2238L23.6554 16.8669ZM22.1554 18.9348L26.574 22.0848L22.1554 18.9348ZM20.3444 20.7561L24.6012 24.0393L20.3444 20.7561Z" stroke="#231F20" stroke-linecap="round" stroke-linejoin="round"/>
</svg>
