<svg width="48" height="48" viewBox="0 0 48 48" fill="none" xmlns="http://www.w3.org/2000/svg">
<path d="M24 48C37.2548 48 48 37.2548 48 24C48 10.7452 37.2548 0 24 0C10.7452 0 0 10.7452 0 24C0 37.2548 10.7452 48 24 48Z" fill="white"/>
<path d="M41.6164 36.4796V24.5516H31.3204V17.1356L21.8884 21.4076V17.1356L11.5444 21.8396V36.4796H41.6164ZM16.6564 31.2716H15.3364V29.9516H16.6564V31.2716ZM16.6564 28.6796H15.3364V27.3596H16.6564V28.6796ZM19.2484 31.2716H17.9284V29.9516H19.2484V31.2716ZM19.2484 28.6796H17.9284V27.3596H19.2484V28.6796ZM21.8164 31.2716H20.4964V29.9516H21.8164V31.2716ZM21.8164 28.6796H20.4964V27.3596H21.8164V28.6796ZM35.5444 27.3596H36.8644V28.6796H35.5444V27.3596ZM35.5444 29.9516H36.8644V31.2716H35.5444V29.9516ZM34.2964 31.2716H32.9764V29.9516H34.2964V31.2716ZM34.2964 28.6796H32.9764V27.3596H34.2964V28.6796ZM37.0084 35.8316H35.4484V33.1916H37.0084V35.8316ZM39.4564 31.2716H38.1364V29.9516H39.4564V31.2716ZM39.4564 28.6796H38.1364V27.3596H39.4564V28.6796Z" fill="#FFE258"/>
<path d="M37.032 36.12V24.192H35.64V22.896H34.872V10.08H33.432V22.92H32.664V24.216H31.728V22.92H30.96V14.784H29.52V22.896H28.752V24.192H26.76V16.776L17.328 21.048V16.776L6.96001 21.48V36.12H37.032Z" stroke="black" stroke-miterlimit="10"/>
</svg>
