<svg width="48" height="48" viewBox="0 0 48 48" fill="none" xmlns="http://www.w3.org/2000/svg">
<path d="M24 48C37.2548 48 48 37.2548 48 24C48 10.7452 37.2548 0 24 0C10.7452 0 0 10.7452 0 24C0 37.2548 10.7452 48 24 48Z" fill="white"/>
<path fill-rule="evenodd" clip-rule="evenodd" d="M25.68 10.56V22.8H34.56V19.68L38.5318 21.9641L42.3593 16.2746L34.56 10.56H30.48H30.24L28.8 7.91998L25.68 10.56Z" fill="#FFCC66"/>
<path fill-rule="evenodd" clip-rule="evenodd" d="M25.68 26.4H34.56V24H25.68V26.4Z" fill="#FFCC66"/>
<path fill-rule="evenodd" clip-rule="evenodd" d="M25.68 30H34.56V27.6H25.68V30Z" fill="#FFA458"/>
<path fill-rule="evenodd" clip-rule="evenodd" d="M25.68 33.6H34.56V31.2H25.68V33.6Z" fill="#FFCC66"/>
<path fill-rule="evenodd" clip-rule="evenodd" d="M14.64 40.56H34.56V34.8H14.64V40.56Z" fill="#FFE258"/>
<path fill-rule="evenodd" clip-rule="evenodd" d="M32.5685 9.84003H28.7348H28.3204L27.4399 13.5632L23.4516 10.2537H23.348L19.3598 13.5632L18.4792 9.84003H18.0649H14.2314C14.0973 9.84003 13.9668 9.88326 13.8595 9.9633L6.7297 15.2783C6.46409 15.4761 6.4007 15.8471 6.58571 16.1218L9.76141 20.8345C9.88095 21.012 10.0772 21.1088 10.2777 21.1088C10.3852 21.1088 10.494 21.0811 10.5928 21.0227L14.1284 18.9411V40.6595C14.1284 41.0022 14.4067 41.28 14.75 41.28H22.8301H23.9696H32.0497C32.393 41.28 32.6713 41.0022 32.6713 40.6595V18.9411L36.2068 21.0227C36.3057 21.0809 36.4144 21.1088 36.5222 21.1088C36.7227 21.1088 36.9187 21.012 37.0383 20.8345L40.214 16.1218C40.399 15.8471 40.3356 15.4761 40.0702 15.2783L32.9404 9.9633C32.8329 9.88326 32.7023 9.84003 32.5685 9.84003ZM32.4677 10.56L39.3599 15.7346L36.4136 20.1383L33.0581 18.1485C32.9287 18.0717 32.7838 18.0333 32.6386 18.0333C32.4974 18.0333 32.356 18.0696 32.229 18.1427C31.9718 18.2905 31.8128 18.5656 31.8128 18.8637V40.32H14.987V18.8637C14.987 18.5656 14.8282 18.2905 14.5707 18.1427C14.4438 18.0696 14.3026 18.0333 14.1611 18.0333C14.016 18.0333 13.8711 18.0717 13.7416 18.1485L10.3862 20.1383L7.43988 15.7346L14.3323 10.56H17.8432L18.5703 13.6571C18.636 13.9369 18.841 14.1626 19.1123 14.2537C19.1978 14.2825 19.2861 14.2967 19.3741 14.2967C19.5642 14.2967 19.7515 14.2307 19.902 14.1049L23.3999 11.1816L26.8978 14.1049C27.0483 14.2307 27.2356 14.2967 27.4257 14.2967C27.5136 14.2967 27.602 14.2825 27.6877 14.2537C27.9588 14.1626 28.1636 13.9369 28.2294 13.6571L28.9567 10.56H32.4677Z" fill="#231F20"/>
<path d="M28.7029 10.2745L26.8408 7.17102H20.0133L18.1511 10.2745" stroke="#231F20" stroke-linejoin="round"/>
<path d="M26.6346 7.30951L23.4966 10.6887M20.1863 7.30951L23.3243 10.6887L20.1863 7.30951Z" stroke="#231F20" stroke-linecap="round" stroke-linejoin="round"/>
<path fill-rule="evenodd" clip-rule="evenodd" d="M24.48 25.2C24.48 25.8626 23.9428 26.4 23.28 26.4C22.6172 26.4 22.08 25.8626 22.08 25.2C22.08 24.5372 22.6172 24 23.28 24C23.9428 24 24.48 24.5372 24.48 25.2ZM24.48 28.8C24.48 29.4626 23.9428 30 23.28 30C22.6172 30 22.08 29.4626 22.08 28.8C22.08 28.1374 22.6172 27.6 23.28 27.6C23.9428 27.6 24.48 28.1374 24.48 28.8ZM24.48 32.4C24.48 33.0626 23.9428 33.6 23.28 33.6C22.6172 33.6 22.08 33.0626 22.08 32.4C22.08 31.7374 22.6172 31.2 23.28 31.2C23.9428 31.2 24.48 31.7374 24.48 32.4Z" fill="#FFA458"/>
<path d="M24 11.04H23.04V16.8H24V11.04Z" fill="#231F20"/>
</svg>
