<svg width="48" height="48" viewBox="0 0 48 48" fill="none" xmlns="http://www.w3.org/2000/svg">
<path d="M24 48C37.2548 48 48 37.2548 48 24C48 10.7452 37.2548 0 24 0C10.7452 0 0 10.7452 0 24C0 37.2548 10.7452 48 24 48Z" fill="white"/>
<path d="M42.4782 12.7678H33.9102V31.1038H42.4782V12.7678Z" fill="#FFE258"/>
<path d="M32.782 12.7678H10.582V31.1038H32.782V12.7678Z" fill="#FFCC66"/>
<path d="M22.101 21.5995C22.341 21.5995 22.533 21.7915 22.533 22.0555V22.2955C23.133 22.3675 23.637 22.5595 24.117 22.8715C24.285 22.9675 24.429 23.1355 24.429 23.3755C24.429 23.7115 24.165 23.9515 23.853 23.9515C23.757 23.9515 23.637 23.9275 23.541 23.8555C23.181 23.6395 22.845 23.4715 22.485 23.3995V25.4155C24.021 25.8235 24.693 26.4475 24.693 27.5755C24.693 28.7275 23.829 29.4955 22.533 29.6395V30.2635C22.533 30.5275 22.341 30.7195 22.101 30.7195C21.861 30.7195 21.645 30.5275 21.645 30.2635V29.6155C20.877 29.5195 20.181 29.2555 19.557 28.7995C19.389 28.6795 19.293 28.5115 19.293 28.2955C19.293 27.9595 19.533 27.7195 19.845 27.7195C19.965 27.7195 20.085 27.7675 20.181 27.8395C20.661 28.1995 21.117 28.4395 21.693 28.5355V26.4715C20.205 26.0635 19.509 25.4875 19.509 24.3115C19.509 23.1835 20.373 22.4155 21.645 22.2955V22.0795C21.669 21.7915 21.861 21.5995 22.101 21.5995ZM21.693 25.1755V23.3035C21.045 23.3755 20.709 23.7355 20.709 24.1915C20.733 24.6475 20.925 24.9115 21.693 25.1755ZM22.509 26.6395V28.5595C23.157 28.4875 23.517 28.1515 23.517 27.6475C23.517 27.1915 23.277 26.9035 22.509 26.6395Z" fill="black"/>
<path d="M38.2079 16.8733H6.33594V35.2093H38.2079V16.8733Z" stroke="black" stroke-miterlimit="10" stroke-linecap="round" stroke-linejoin="round"/>
<path d="M38.2328 20.6413C36.1448 20.6413 34.4648 18.9613 34.4648 16.8733" stroke="black" stroke-miterlimit="10" stroke-linecap="round" stroke-linejoin="round"/>
<path d="M34.4648 35.2091C34.4648 33.1211 36.1448 31.4411 38.2328 31.4411" stroke="black" stroke-miterlimit="10" stroke-linecap="round" stroke-linejoin="round"/>
<path d="M6.33594 20.6413C8.42394 20.6413 10.1039 18.9613 10.1039 16.8733" stroke="black" stroke-miterlimit="10" stroke-linecap="round" stroke-linejoin="round"/>
<path d="M10.1039 35.2091C10.1039 33.1211 8.42394 31.4411 6.33594 31.4411" stroke="black" stroke-miterlimit="10" stroke-linecap="round" stroke-linejoin="round"/>
</svg>
