<svg width="48" height="48" viewBox="0 0 48 48" fill="none" xmlns="http://www.w3.org/2000/svg">
<circle cx="24" cy="24" r="24" fill="white"/>
<path d="M24 23.1667C25.841 23.1667 27.3333 21.6743 27.3333 19.8333C27.3333 17.9924 25.841 16.5 24 16.5C22.1591 16.5 20.6667 17.9924 20.6667 19.8333C20.6667 21.6743 22.1591 23.1667 24 23.1667Z" stroke="#222222" stroke-linecap="round" stroke-linejoin="round"/>
<path d="M24.0001 26C20.7973 26 17.9141 27.1822 15.9038 29.0689L16.6092 29.7743C18.438 28.0696 21.0721 27 24.0001 27C26.9281 27 29.5622 28.0696 31.391 29.7743L32.0964 29.0689C30.0861 27.1822 27.203 26 24.0001 26Z" fill="#222222"/>
</svg>
