<svg width="20" height="20" viewBox="0 0 20 20" fill="none" xmlns="http://www.w3.org/2000/svg">
<path d="M10 10.6667V1.08337V10.6667Z" fill="#FFCC66"/>
<path d="M2.5 13.5V15.8334C2.5 16.75 3.25 17.5 4.16667 17.5H15.8333C16.2754 17.5 16.6993 17.3244 17.0118 17.0119C17.3244 16.6993 17.5 16.2754 17.5 15.8334V13.5H2.5Z" fill="#FFCC66"/>
<path d="M2.5 13.5V13C2.22386 13 2 13.2239 2 13.5H2.5ZM17.5 13.5H18C18 13.2239 17.7761 13 17.5 13V13.5ZM14.5202 6.85359L14.8738 6.50004L14.1667 5.79293L13.8131 6.14649L14.5202 6.85359ZM10 10.6667L9.64645 11.0203L10 11.3738L10.3536 11.0203L10 10.6667ZM6.18689 6.14649L5.83333 5.79293L5.12623 6.50004L5.47978 6.85359L6.18689 6.14649ZM10.5 1.08337V0.583374H9.5V1.08337H10.5ZM2 13.5V15.8334H3V13.5H2ZM2 15.8334C2 17.0262 2.97386 18 4.16667 18V17C3.52614 17 3 16.4739 3 15.8334H2ZM4.16667 18H15.8333V17H4.16667V18ZM15.8333 18C16.408 18 16.9591 17.7718 17.3654 17.3654L16.6583 16.6583C16.4395 16.8771 16.1428 17 15.8333 17V18ZM17.3654 17.3654C17.7717 16.9591 18 16.408 18 15.8334H17C17 16.1428 16.8771 16.4395 16.6583 16.6583L17.3654 17.3654ZM17.5 15.8334C18 15.8334 18 15.8334 18 15.8334C18 15.8334 18 15.8333 18 15.8333C18 15.8333 18 15.8333 18 15.8333C18 15.8332 18 15.8332 18 15.8332C18 15.8332 18 15.8331 18 15.8331C18 15.833 18 15.833 18 15.833C18 15.8329 18 15.8329 18 15.8328C18 15.8327 18 15.8327 18 15.8326C18 15.8326 18 15.8325 18 15.8324C18 15.8324 18 15.8323 18 15.8322C18 15.8321 18 15.832 18 15.832C18 15.8319 18 15.8318 18 15.8317C18 15.8316 18 15.8315 18 15.8314C18 15.8313 18 15.8312 18 15.8311C18 15.831 18 15.8309 18 15.8307C18 15.8306 18 15.8305 18 15.8304C18 15.8303 18 15.8301 18 15.83C18 15.8299 18 15.8297 18 15.8296C18 15.8294 18 15.8293 18 15.8292C18 15.829 18 15.8289 18 15.8287C18 15.8285 18 15.8284 18 15.8282C18 15.8281 18 15.8279 18 15.8277C18 15.8275 18 15.8274 18 15.8272C18 15.827 18 15.8268 18 15.8267C18 15.8265 18 15.8263 18 15.8261C18 15.8259 18 15.8257 18 15.8255C18 15.8253 18 15.8251 18 15.8249C18 15.8247 18 15.8245 18 15.8242C18 15.824 18 15.8238 18 15.8236C18 15.8234 18 15.8231 18 15.8229C18 15.8227 18 15.8224 18 15.8222C18 15.822 18 15.8217 18 15.8215C18 15.8212 18 15.821 18 15.8207C18 15.8205 18 15.8202 18 15.82C18 15.8197 18 15.8194 18 15.8192C18 15.8189 18 15.8186 18 15.8183C18 15.8181 18 15.8178 18 15.8175C18 15.8172 18 15.8169 18 15.8166C18 15.8163 18 15.8161 18 15.8158C18 15.8155 18 15.8152 18 15.8148C18 15.8145 18 15.8142 18 15.8139C18 15.8136 18 15.8133 18 15.813C18 15.8126 18 15.8123 18 15.812C18 15.8117 18 15.8113 18 15.811C18 15.8107 18 15.8103 18 15.81C18 15.8096 18 15.8093 18 15.8089C18 15.8086 18 15.8082 18 15.8079C18 15.8075 18 15.8072 18 15.8068C18 15.8064 18 15.8061 18 15.8057C18 15.8053 18 15.8049 18 15.8046C18 15.8042 18 15.8038 18 15.8034C18 15.803 18 15.8026 18 15.8022C18 15.8019 18 15.8015 18 15.8011C18 15.8007 18 15.8003 18 15.7998C18 15.7994 18 15.799 18 15.7986C18 15.7982 18 15.7978 18 15.7973C18 15.7969 18 15.7965 18 15.7961C18 15.7956 18 15.7952 18 15.7948C18 15.7943 18 15.7939 18 15.7934C18 15.793 18 15.7926 18 15.7921C18 15.7916 18 15.7912 18 15.7907C18 15.7903 18 15.7898 18 15.7893C18 15.7889 18 15.7884 18 15.7879C18 15.7875 18 15.787 18 15.7865C18 15.786 18 15.7855 18 15.7851C18 15.7846 18 15.7841 18 15.7836C18 15.7831 18 15.7826 18 15.7821C18 15.7816 18 15.7811 18 15.7806C18 15.7801 18 15.7795 18 15.779C18 15.7785 18 15.778 18 15.7775C18 15.7769 18 15.7764 18 15.7759C18 15.7754 18 15.7748 18 15.7743C18 15.7738 18 15.7732 18 15.7727C18 15.7721 18 15.7716 18 15.771C18 15.7705 18 15.7699 18 15.7694C18 15.7688 18 15.7682 18 15.7677C18 15.7671 18 15.7665 18 15.766C18 15.7654 18 15.7648 18 15.7642C18 15.7637 18 15.7631 18 15.7625C18 15.7619 18 15.7613 18 15.7607C18 15.7601 18 15.7595 18 15.7589C18 15.7583 18 15.7577 18 15.7571C18 15.7565 18 15.7559 18 15.7553C18 15.7547 18 15.7541 18 15.7534C18 15.7528 18 15.7522 18 15.7516C18 15.7509 18 15.7503 18 15.7497C18 15.749 18 15.7484 18 15.7478C18 15.7471 18 15.7465 18 15.7458C18 15.7452 18 15.7445 18 15.7439C18 15.7432 18 15.7425 18 15.7419C18 15.7412 18 15.7406 18 15.7399C18 15.7392 18 15.7385 18 15.7379C18 15.7372 18 15.7365 18 15.7358C18 15.7351 18 15.7345 18 15.7338C18 15.7331 18 15.7324 18 15.7317C18 15.731 18 15.7303 18 15.7296C18 15.7289 18 15.7282 18 15.7275C18 15.7268 18 15.726 18 15.7253C18 15.7246 18 15.7239 18 15.7232C18 15.7224 18 15.7217 18 15.721C18 15.7203 18 15.7195 18 15.7188C18 15.7181 18 15.7173 18 15.7166C18 15.7158 18 15.7151 18 15.7143C18 15.7136 18 15.7128 18 15.7121C18 15.7113 18 15.7105 18 15.7098C18 15.709 18 15.7083 18 15.7075C18 15.7067 18 15.7059 18 15.7052C18 15.7044 18 15.7036 18 15.7028C18 15.702 18 15.7012 18 15.7005C18 15.6997 18 15.6989 18 15.6981C18 15.6973 18 15.6965 18 15.6957C18 15.6949 18 15.6941 18 15.6933C18 15.6924 18 15.6916 18 15.6908C18 15.69 18 15.6892 18 15.6884C18 15.6875 18 15.6867 18 15.6859C18 15.685 18 15.6842 18 15.6834C18 15.6825 18 15.6817 18 15.6809C18 15.68 18 15.6792 18 15.6783C18 15.6775 18 15.6766 18 15.6758C18 15.6749 18 15.674 18 15.6732C18 15.6723 18 15.6714 18 15.6706C18 15.6697 18 15.6688 18 15.668C18 15.6671 18 15.6662 18 15.6653C18 15.6644 18 15.6636 18 15.6627C18 15.6618 18 15.6609 18 15.66C18 15.6591 18 15.6582 18 15.6573C18 15.6564 18 15.6555 18 15.6546C18 15.6537 18 15.6528 18 15.6518C18 15.6509 18 15.65 18 15.6491C18 15.6482 18 15.6473 18 15.6463C18 15.6454 18 15.6445 18 15.6435C18 15.6426 18 15.6417 18 15.6407C18 15.6398 18 15.6388 18 15.6379C18 15.6369 18 15.636 18 15.635C18 15.6341 18 15.6331 18 15.6322C18 15.6312 18 15.6303 18 15.6293C18 15.6283 18 15.6274 18 15.6264C18 15.6254 18 15.6244 18 15.6235C18 15.6225 18 15.6215 18 15.6205C18 15.6195 18 15.6185 18 15.6176C18 15.6166 18 15.6156 18 15.6146C18 15.6136 18 15.6126 18 15.6116C18 15.6106 18 15.6096 18 15.6086C18 15.6075 18 15.6065 18 15.6055C18 15.6045 18 15.6035 18 15.6025C18 15.6014 18 15.6004 18 15.5994C18 15.5984 18 15.5973 18 15.5963C18 15.5953 18 15.5942 18 15.5932C18 15.5921 18 15.5911 18 15.59C18 15.589 18 15.5879 18 15.5869C18 15.5858 18 15.5848 18 15.5837C18 15.5827 18 15.5816 18 15.5805C18 15.5795 18 15.5784 18 15.5773C18 15.5763 18 15.5752 18 15.5741C18 15.573 18 15.572 18 15.5709C18 15.5698 18 15.5687 18 15.5676C18 15.5665 18 15.5654 18 15.5643C18 15.5632 18 15.5621 18 15.561C18 15.5599 18 15.5588 18 15.5577C18 15.5566 18 15.5555 18 15.5544C18 15.5533 18 15.5522 18 15.551C18 15.5499 18 15.5488 18 15.5477C18 15.5465 18 15.5454 18 15.5443C18 15.5431 18 15.542 18 15.5409C18 15.5397 18 15.5386 18 15.5375C18 15.5363 18 15.5352 18 15.534C18 15.5329 18 15.5317 18 15.5306C18 15.5294 18 15.5282 18 15.5271C18 15.5259 18 15.5247 18 15.5236C18 15.5224 18 15.5212 18 15.5201C18 15.5189 18 15.5177 18 15.5165C18 15.5154 18 15.5142 18 15.513C18 15.5118 18 15.5106 18 15.5094C18 15.5082 18 15.507 18 15.5058C18 15.5046 18 15.5034 18 15.5022C18 15.501 18 15.4998 18 15.4986C18 15.4974 18 15.4962 18 15.495C18 15.4938 18 15.4925 18 15.4913C18 15.4901 18 15.4889 18 15.4876C18 15.4864 18 15.4852 18 15.484C18 15.4827 18 15.4815 18 15.4803C18 15.479 18 15.4778 18 15.4765C18 15.4753 18 15.474 18 15.4728C18 15.4715 18 15.4703 18 15.469C18 15.4678 18 15.4665 18 15.4652C18 15.464 18 15.4627 18 15.4615C18 15.4602 18 15.4589 18 15.4576C18 15.4564 18 15.4551 18 15.4538C18 15.4525 18 15.4513 18 15.45C18 15.4487 18 15.4474 18 15.4461C18 15.4448 18 15.4435 18 15.4422C18 15.4409 18 15.4396 18 15.4383C18 15.437 18 15.4357 18 15.4344C18 15.4331 18 15.4318 18 15.4305C18 15.4292 18 15.4279 18 15.4265C18 15.4252 18 15.4239 18 15.4226C18 15.4212 18 15.4199 18 15.4186C18 15.4173 18 15.4159 18 15.4146C18 15.4132 18 15.4119 18 15.4106C18 15.4092 18 15.4079 18 15.4065C18 15.4052 18 15.4038 18 15.4025C18 15.4011 18 15.3998 18 15.3984C18 15.3971 18 15.3957 18 15.3943C18 15.393 18 15.3916 18 15.3902C18 15.3889 18 15.3875 18 15.3861C18 15.3847 18 15.3834 18 15.382C18 15.3806 18 15.3792 18 15.3778C18 15.3764 18 15.3751 18 15.3737C18 15.3723 18 15.3709 18 15.3695C18 15.3681 18 15.3667 18 15.3653C18 15.3639 18 15.3625 18 15.3611C18 15.3597 18 15.3583 18 15.3568C18 15.3554 18 15.354 18 15.3526C18 15.3512 18 15.3497 18 15.3483C18 15.3469 18 15.3455 18 15.344C18 15.3426 18 15.3412 18 15.3397C18 15.3383 18 15.3369 18 15.3354C18 15.334 18 15.3325 18 15.3311C18 15.3297 18 15.3282 18 15.3268C18 15.3253 18 15.3238 18 15.3224C18 15.3209 18 15.3195 18 15.318C18 15.3166 18 15.3151 18 15.3136C18 15.3122 18 15.3107 18 15.3092C18 15.3077 18 15.3063 18 15.3048C18 15.3033 18 15.3018 18 15.3003C18 15.2989 18 15.2974 18 15.2959C18 15.2944 18 15.2929 18 15.2914C18 15.2899 18 15.2884 18 15.2869C18 15.2854 18 15.2839 18 15.2824C18 15.2809 18 15.2794 18 15.2779C18 15.2764 18 15.2749 18 15.2733C18 15.2718 18 15.2703 18 15.2688C18 15.2673 18 15.2657 18 15.2642C18 15.2627 18 15.2612 18 15.2596C18 15.2581 18 15.2566 18 15.255C18 15.2535 18 15.252 18 15.2504C18 15.2489 18 15.2473 18 15.2458C18 15.2442 18 15.2427 18 15.2411C18 15.2396 18 15.238 18 15.2365C18 15.2349 18 15.2334 18 15.2318C18 15.2302 18 15.2287 18 15.2271C18 15.2255 18 15.224 18 15.2224C18 15.2208 18 15.2192 18 15.2177C18 15.2161 18 15.2145 18 15.2129C18 15.2113 18 15.2098 18 15.2082C18 15.2066 18 15.205 18 15.2034C18 15.2018 18 15.2002 18 15.1986C18 15.197 18 15.1954 18 15.1938C18 15.1922 18 15.1906 18 15.189C18 15.1874 18 15.1858 18 15.1842C18 15.1826 18 15.1809 18 15.1793C18 15.1777 18 15.1761 18 15.1745C18 15.1728 18 15.1712 18 15.1696C18 15.168 18 15.1663 18 15.1647C18 15.1631 18 15.1614 18 15.1598C18 15.1581 18 15.1565 18 15.1549C18 15.1532 18 15.1516 18 15.1499C18 15.1483 18 15.1466 18 15.145C18 15.1433 18 15.1417 18 15.14C18 15.1384 18 15.1367 18 15.135C18 15.1334 18 15.1317 18 15.13C18 15.1284 18 15.1267 18 15.125C18 15.1233 18 15.1217 18 15.12C18 15.1183 18 15.1166 18 15.115C18 15.1133 18 15.1116 18 15.1099C18 15.1082 18 15.1065 18 15.1048C18 15.1031 18 15.1014 18 15.0997C18 15.0981 18 15.0964 18 15.0947C18 15.0929 18 15.0912 18 15.0895C18 15.0878 18 15.0861 18 15.0844C18 15.0827 18 15.081 18 15.0793C18 15.0776 18 15.0758 18 15.0741C18 15.0724 18 15.0707 18 15.0689C18 15.0672 18 15.0655 18 15.0638C18 15.062 18 15.0603 18 15.0586C18 15.0568 18 15.0551 18 15.0533C18 15.0516 18 15.0499 18 15.0481C18 15.0464 18 15.0446 18 15.0429C18 15.0411 18 15.0394 18 15.0376C18 15.0359 18 15.0341 18 15.0324C18 15.0306 18 15.0288 18 15.0271C18 15.0253 18 15.0235 18 15.0218C18 15.02 18 15.0182 18 15.0165C18 15.0147 18 15.0129 18 15.0111C18 15.0094 18 15.0076 18 15.0058C18 15.004 18 15.0022 18 15.0004C18 14.9987 18 14.9969 18 14.9951C18 14.9933 18 14.9915 18 14.9897C18 14.9879 18 14.9861 18 14.9843C18 14.9825 18 14.9807 18 14.9789C18 14.9771 18 14.9753 18 14.9735C18 14.9717 18 14.9698 18 14.968C18 14.9662 18 14.9644 18 14.9626C18 14.9608 18 14.9589 18 14.9571C18 14.9553 18 14.9535 18 14.9516C18 14.9498 18 14.948 18 14.9461C18 14.9443 18 14.9425 18 14.9406C18 14.9388 18 14.937 18 14.9351C18 14.9333 18 14.9314 18 14.9296C18 14.9277 18 14.9259 18 14.924C18 14.9222 18 14.9203 18 14.9185C18 14.9166 18 14.9148 18 14.9129C18 14.9111 18 14.9092 18 14.9073C18 14.9055 18 14.9036 18 14.9017C18 14.8999 18 14.898 18 14.8961C18 14.8942 18 14.8924 18 14.8905C18 14.8886 18 14.8867 18 14.8849C18 14.883 18 14.8811 18 14.8792C18 14.8773 18 14.8754 18 14.8735C18 14.8717 18 14.8698 18 14.8679C18 14.866 18 14.8641 18 14.8622C18 14.8603 18 14.8584 18 14.8565C18 14.8546 18 14.8527 18 14.8508C18 14.8488 18 14.8469 18 14.845C18 14.8431 18 14.8412 18 14.8393C18 14.8374 18 14.8354 18 14.8335C18 14.8316 18 14.8297 18 14.8278C18 14.8258 18 14.8239 18 14.822C18 14.82 18 14.8181 18 14.8162C18 14.8143 18 14.8123 18 14.8104C18 14.8084 18 14.8065 18 14.8046C18 14.8026 18 14.8007 18 14.7987C18 14.7968 18 14.7948 18 14.7929C18 14.7909 18 14.789 18 14.787C18 14.7851 18 14.7831 18 14.7812C18 14.7792 18 14.7772 18 14.7753C18 14.7733 18 14.7713 18 14.7694C18 14.7674 18 14.7654 18 14.7635C18 14.7615 18 14.7595 18 14.7576C18 14.7556 18 14.7536 18 14.7516C18 14.7496 18 14.7477 18 14.7457C18 14.7437 18 14.7417 18 14.7397C18 14.7377 18 14.7357 18 14.7338C18 14.7318 18 14.7298 18 14.7278C18 14.7258 18 14.7238 18 14.7218C18 14.7198 18 14.7178 18 14.7158C18 14.7138 18 14.7118 18 14.7098C18 14.7077 18 14.7057 18 14.7037C18 14.7017 18 14.6997 18 14.6977C18 14.6957 18 14.6936 18 14.6916C18 14.6896 18 14.6876 18 14.6856C18 14.6835 18 14.6815 18 14.6795C18 14.6775 18 14.6754 18 14.6734C18 14.6714 18 14.6693 18 14.6673C18 14.6653 18 14.6632 18 14.6612C18 14.6591 18 14.6571 18 14.655C18 14.653 18 14.651 18 14.6489C18 14.6469 18 14.6448 18 14.6428C18 14.6407 18 14.6387 18 14.6366C18 14.6345 18 14.6325 18 14.6304C18 14.6284 18 14.6263 18 14.6242C18 14.6222 18 14.6201 18 14.618C18 14.616 18 14.6139 18 14.6118C18 14.6098 18 14.6077 18 14.6056C18 14.6035 18 14.6015 18 14.5994C18 14.5973 18 14.5952 18 14.5931C18 14.5911 18 14.589 18 14.5869C18 14.5848 18 14.5827 18 14.5806C18 14.5785 18 14.5764 18 14.5743C18 14.5722 18 14.5702 18 14.5681C18 14.566 18 14.5639 18 14.5618C18 14.5597 18 14.5575 18 14.5554C18 14.5533 18 14.5512 18 14.5491C18 14.547 18 14.5449 18 14.5428C18 14.5407 18 14.5386 18 14.5364C18 14.5343 18 14.5322 18 14.5301C18 14.528 18 14.5258 18 14.5237C18 14.5216 18 14.5195 18 14.5173C18 14.5152 18 14.5131 18 14.511C18 14.5088 18 14.5067 18 14.5045C18 14.5024 18 14.5003 18 14.4981C18 14.496 18 14.4939 18 14.4917C18 14.4896 18 14.4874 18 14.4853C18 14.4831 18 14.481 18 14.4788C18 14.4767 18 14.4745 18 14.4724C18 14.4702 18 14.4681 18 14.4659C18 14.4638 18 14.4616 18 14.4594C18 14.4573 18 14.4551 18 14.453C18 14.4508 18 14.4486 18 14.4465C18 14.4443 18 14.4421 18 14.4399C18 14.4378 18 14.4356 18 14.4334C18 14.4312 18 14.4291 18 14.4269C18 14.4247 18 14.4225 18 14.4204C18 14.4182 18 14.416 18 14.4138C18 14.4116 18 14.4094 18 14.4072C18 14.405 18 14.4029 18 14.4007C18 14.3985 18 14.3963 18 14.3941C18 14.3919 18 14.3897 18 14.3875C18 14.3853 18 14.3831 18 14.3809C18 14.3787 18 14.3765 18 14.3743C18 14.3721 18 14.3699 18 14.3676C18 14.3654 18 14.3632 18 14.361C18 14.3588 18 14.3566 18 14.3544C18 14.3521 18 14.3499 18 14.3477C18 14.3455 18 14.3433 18 14.341C18 14.3388 18 14.3366 18 14.3344C18 14.3321 18 14.3299 18 14.3277C18 14.3254 18 14.3232 18 14.321C18 14.3187 18 14.3165 18 14.3143C18 14.312 18 14.3098 18 14.3076C18 14.3053 18 14.3031 18 14.3008C18 14.2986 18 14.2963 18 14.2941C18 14.2918 18 14.2896 18 14.2873C18 14.2851 18 14.2828 18 14.2806C18 14.2783 18 14.2761 18 14.2738C18 14.2716 18 14.2693 18 14.2671C18 14.2648 18 14.2625 18 14.2603C18 14.258 18 14.2557 18 14.2535C18 14.2512 18 14.2489 18 14.2467C18 14.2444 18 14.2421 18 14.2399C18 14.2376 18 14.2353 18 14.233C18 14.2308 18 14.2285 18 14.2262C18 14.2239 18 14.2216 18 14.2193C18 14.2171 18 14.2148 18 14.2125C18 14.2102 18 14.2079 18 14.2056C18 14.2033 18 14.2011 18 14.1988C18 14.1965 18 14.1942 18 14.1919C18 14.1896 18 14.1873 18 14.185C18 14.1827 18 14.1804 18 14.1781C18 14.1758 18 14.1735 18 14.1712C18 14.1689 18 14.1666 18 14.1643C18 14.162 18 14.1596 18 14.1573C18 14.155 18 14.1527 18 14.1504C18 14.1481 18 14.1458 18 14.1434C18 14.1411 18 14.1388 18 14.1365C18 14.1342 18 14.1318 18 14.1295C18 14.1272 18 14.1249 18 14.1226C18 14.1202 18 14.1179 18 14.1156C18 14.1132 18 14.1109 18 14.1086C18 14.1062 18 14.1039 18 14.1016C18 14.0992 18 14.0969 18 14.0946C18 14.0922 18 14.0899 18 14.0875C18 14.0852 18 14.0829 18 14.0805C18 14.0782 18 14.0758 18 14.0735C18 14.0711 18 14.0688 18 14.0664C18 14.0641 18 14.0617 18 14.0594C18 14.057 18 14.0547 18 14.0523C18 14.05 18 14.0476 18 14.0452C18 14.0429 18 14.0405 18 14.0382C18 14.0358 18 14.0334 18 14.0311C18 14.0287 18 14.0263 18 14.024C18 14.0216 18 14.0192 18 14.0169C18 14.0145 18 14.0121 18 14.0097C18 14.0074 18 14.005 18 14.0026C18 14.0002 18 13.9979 18 13.9955C18 13.9931 18 13.9907 18 13.9884C18 13.986 18 13.9836 18 13.9812C18 13.9788 18 13.9764 18 13.974C18 13.9717 18 13.9693 18 13.9669C18 13.9645 18 13.9621 18 13.9597C18 13.9573 18 13.9549 18 13.9525C18 13.9501 18 13.9477 18 13.9453C18 13.9429 18 13.9405 18 13.9381C18 13.9357 18 13.9333 18 13.9309C18 13.9285 18 13.9261 18 13.9237C18 13.9213 18 13.9189 18 13.9165C18 13.9141 18 13.9117 18 13.9093C18 13.9068 18 13.9044 18 13.902C18 13.8996 18 13.8972 18 13.8948C18 13.8923 18 13.8899 18 13.8875C18 13.8851 18 13.8827 18 13.8802C18 13.8778 18 13.8754 18 13.873C18 13.8705 18 13.8681 18 13.8657C18 13.8633 18 13.8608 18 13.8584C18 13.856 18 13.8535 18 13.8511C18 13.8487 18 13.8462 18 13.8438C18 13.8414 18 13.8389 18 13.8365C18 13.8341 18 13.8316 18 13.8292C18 13.8267 18 13.8243 18 13.8219C18 13.8194 18 13.817 18 13.8145C18 13.8121 18 13.8096 18 13.8072C18 13.8047 18 13.8023 18 13.7998C18 13.7974 18 13.7949 18 13.7925C18 13.79 18 13.7876 18 13.7851C18 13.7827 18 13.7802 18 13.7777C18 13.7753 18 13.7728 18 13.7704C18 13.7679 18 13.7654 18 13.763C18 13.7605 18 13.758 18 13.7556C18 13.7531 18 13.7506 18 13.7482C18 13.7457 18 13.7432 18 13.7408C18 13.7383 18 13.7358 18 13.7333C18 13.7309 18 13.7284 18 13.7259C18 13.7235 18 13.721 18 13.7185C18 13.716 18 13.7135 18 13.7111C18 13.7086 18 13.7061 18 13.7036C18 13.7011 18 13.6986 18 13.6962C18 13.6937 18 13.6912 18 13.6887C18 13.6862 18 13.6837 18 13.6812C18 13.6787 18 13.6763 18 13.6738C18 13.6713 18 13.6688 18 13.6663C18 13.6638 18 13.6613 18 13.6588C18 13.6563 18 13.6538 18 13.6513C18 13.6488 18 13.6463 18 13.6438C18 13.6413 18 13.6388 18 13.6363C18 13.6338 18 13.6313 18 13.6288C18 13.6263 18 13.6238 18 13.6213C18 13.6188 18 13.6162 18 13.6137C18 13.6112 18 13.6087 18 13.6062C18 13.6037 18 13.6012 18 13.5987C18 13.5961 18 13.5936 18 13.5911C18 13.5886 18 13.5861 18 13.5836C18 13.581 18 13.5785 18 13.576C18 13.5735 18 13.571 18 13.5684C18 13.5659 18 13.5634 18 13.5609C18 13.5583 18 13.5558 18 13.5533C18 13.5508 18 13.5482 18 13.5457C18 13.5432 18 13.5406 18 13.5381C18 13.5356 18 13.533 18 13.5305C18 13.528 18 13.5254 18 13.5229C18 13.5204 18 13.5178 18 13.5153C18 13.5127 18 13.5102 18 13.5077C18 13.5051 18 13.5026 18 13.5H17C17 13.5026 17 13.5051 17 13.5077C17 13.5102 17 13.5127 17 13.5153C17 13.5178 17 13.5204 17 13.5229C17 13.5254 17 13.528 17 13.5305C17 13.533 17 13.5356 17 13.5381C17 13.5406 17 13.5432 17 13.5457C17 13.5482 17 13.5508 17 13.5533C17 13.5558 17 13.5583 17 13.5609C17 13.5634 17 13.5659 17 13.5684C17 13.571 17 13.5735 17 13.576C17 13.5785 17 13.581 17 13.5836C17 13.5861 17 13.5886 17 13.5911C17 13.5936 17 13.5961 17 13.5987C17 13.6012 17 13.6037 17 13.6062C17 13.6087 17 13.6112 17 13.6137C17 13.6162 17 13.6188 17 13.6213C17 13.6238 17 13.6263 17 13.6288C17 13.6313 17 13.6338 17 13.6363C17 13.6388 17 13.6413 17 13.6438C17 13.6463 17 13.6488 17 13.6513C17 13.6538 17 13.6563 17 13.6588C17 13.6613 17 13.6638 17 13.6663C17 13.6688 17 13.6713 17 13.6738C17 13.6763 17 13.6787 17 13.6812C17 13.6837 17 13.6862 17 13.6887C17 13.6912 17 13.6937 17 13.6962C17 13.6986 17 13.7011 17 13.7036C17 13.7061 17 13.7086 17 13.7111C17 13.7135 17 13.716 17 13.7185C17 13.721 17 13.7235 17 13.7259C17 13.7284 17 13.7309 17 13.7333C17 13.7358 17 13.7383 17 13.7408C17 13.7432 17 13.7457 17 13.7482C17 13.7506 17 13.7531 17 13.7556C17 13.758 17 13.7605 17 13.763C17 13.7654 17 13.7679 17 13.7704C17 13.7728 17 13.7753 17 13.7777C17 13.7802 17 13.7827 17 13.7851C17 13.7876 17 13.79 17 13.7925C17 13.7949 17 13.7974 17 13.7998C17 13.8023 17 13.8047 17 13.8072C17 13.8096 17 13.8121 17 13.8145C17 13.817 17 13.8194 17 13.8219C17 13.8243 17 13.8267 17 13.8292C17 13.8316 17 13.8341 17 13.8365C17 13.8389 17 13.8414 17 13.8438C17 13.8462 17 13.8487 17 13.8511C17 13.8535 17 13.856 17 13.8584C17 13.8608 17 13.8633 17 13.8657C17 13.8681 17 13.8705 17 13.873C17 13.8754 17 13.8778 17 13.8802C17 13.8827 17 13.8851 17 13.8875C17 13.8899 17 13.8923 17 13.8948C17 13.8972 17 13.8996 17 13.902C17 13.9044 17 13.9068 17 13.9093C17 13.9117 17 13.9141 17 13.9165C17 13.9189 17 13.9213 17 13.9237C17 13.9261 17 13.9285 17 13.9309C17 13.9333 17 13.9357 17 13.9381C17 13.9405 17 13.9429 17 13.9453C17 13.9477 17 13.9501 17 13.9525C17 13.9549 17 13.9573 17 13.9597C17 13.9621 17 13.9645 17 13.9669C17 13.9693 17 13.9717 17 13.974C17 13.9764 17 13.9788 17 13.9812C17 13.9836 17 13.986 17 13.9884C17 13.9907 17 13.9931 17 13.9955C17 13.9979 17 14.0002 17 14.0026C17 14.005 17 14.0074 17 14.0097C17 14.0121 17 14.0145 17 14.0169C17 14.0192 17 14.0216 17 14.024C17 14.0263 17 14.0287 17 14.0311C17 14.0334 17 14.0358 17 14.0382C17 14.0405 17 14.0429 17 14.0452C17 14.0476 17 14.05 17 14.0523C17 14.0547 17 14.057 17 14.0594C17 14.0617 17 14.0641 17 14.0664C17 14.0688 17 14.0711 17 14.0735C17 14.0758 17 14.0782 17 14.0805C17 14.0829 17 14.0852 17 14.0875C17 14.0899 17 14.0922 17 14.0946C17 14.0969 17 14.0992 17 14.1016C17 14.1039 17 14.1062 17 14.1086C17 14.1109 17 14.1132 17 14.1156C17 14.1179 17 14.1202 17 14.1226C17 14.1249 17 14.1272 17 14.1295C17 14.1318 17 14.1342 17 14.1365C17 14.1388 17 14.1411 17 14.1434C17 14.1458 17 14.1481 17 14.1504C17 14.1527 17 14.155 17 14.1573C17 14.1596 17 14.162 17 14.1643C17 14.1666 17 14.1689 17 14.1712C17 14.1735 17 14.1758 17 14.1781C17 14.1804 17 14.1827 17 14.185C17 14.1873 17 14.1896 17 14.1919C17 14.1942 17 14.1965 17 14.1988C17 14.2011 17 14.2033 17 14.2056C17 14.2079 17 14.2102 17 14.2125C17 14.2148 17 14.2171 17 14.2193C17 14.2216 17 14.2239 17 14.2262C17 14.2285 17 14.2308 17 14.233C17 14.2353 17 14.2376 17 14.2399C17 14.2421 17 14.2444 17 14.2467C17 14.2489 17 14.2512 17 14.2535C17 14.2557 17 14.258 17 14.2603C17 14.2625 17 14.2648 17 14.2671C17 14.2693 17 14.2716 17 14.2738C17 14.2761 17 14.2783 17 14.2806C17 14.2828 17 14.2851 17 14.2873C17 14.2896 17 14.2918 17 14.2941C17 14.2963 17 14.2986 17 14.3008C17 14.3031 17 14.3053 17 14.3076C17 14.3098 17 14.312 17 14.3143C17 14.3165 17 14.3187 17 14.321C17 14.3232 17 14.3254 17 14.3277C17 14.3299 17 14.3321 17 14.3344C17 14.3366 17 14.3388 17 14.341C17 14.3433 17 14.3455 17 14.3477C17 14.3499 17 14.3521 17 14.3544C17 14.3566 17 14.3588 17 14.361C17 14.3632 17 14.3654 17 14.3676C17 14.3699 17 14.3721 17 14.3743C17 14.3765 17 14.3787 17 14.3809C17 14.3831 17 14.3853 17 14.3875C17 14.3897 17 14.3919 17 14.3941C17 14.3963 17 14.3985 17 14.4007C17 14.4029 17 14.405 17 14.4072C17 14.4094 17 14.4116 17 14.4138C17 14.416 17 14.4182 17 14.4204C17 14.4225 17 14.4247 17 14.4269C17 14.4291 17 14.4312 17 14.4334C17 14.4356 17 14.4378 17 14.4399C17 14.4421 17 14.4443 17 14.4465C17 14.4486 17 14.4508 17 14.453C17 14.4551 17 14.4573 17 14.4594C17 14.4616 17 14.4638 17 14.4659C17 14.4681 17 14.4702 17 14.4724C17 14.4745 17 14.4767 17 14.4788C17 14.481 17 14.4831 17 14.4853C17 14.4874 17 14.4896 17 14.4917C17 14.4939 17 14.496 17 14.4981C17 14.5003 17 14.5024 17 14.5045C17 14.5067 17 14.5088 17 14.511C17 14.5131 17 14.5152 17 14.5173C17 14.5195 17 14.5216 17 14.5237C17 14.5258 17 14.528 17 14.5301C17 14.5322 17 14.5343 17 14.5364C17 14.5386 17 14.5407 17 14.5428C17 14.5449 17 14.547 17 14.5491C17 14.5512 17 14.5533 17 14.5554C17 14.5575 17 14.5597 17 14.5618C17 14.5639 17 14.566 17 14.5681C17 14.5702 17 14.5722 17 14.5743C17 14.5764 17 14.5785 17 14.5806C17 14.5827 17 14.5848 17 14.5869C17 14.589 17 14.5911 17 14.5931C17 14.5952 17 14.5973 17 14.5994C17 14.6015 17 14.6035 17 14.6056C17 14.6077 17 14.6098 17 14.6118C17 14.6139 17 14.616 17 14.618C17 14.6201 17 14.6222 17 14.6242C17 14.6263 17 14.6284 17 14.6304C17 14.6325 17 14.6345 17 14.6366C17 14.6387 17 14.6407 17 14.6428C17 14.6448 17 14.6469 17 14.6489C17 14.651 17 14.653 17 14.655C17 14.6571 17 14.6591 17 14.6612C17 14.6632 17 14.6653 17 14.6673C17 14.6693 17 14.6714 17 14.6734C17 14.6754 17 14.6775 17 14.6795C17 14.6815 17 14.6835 17 14.6856C17 14.6876 17 14.6896 17 14.6916C17 14.6936 17 14.6957 17 14.6977C17 14.6997 17 14.7017 17 14.7037C17 14.7057 17 14.7077 17 14.7098C17 14.7118 17 14.7138 17 14.7158C17 14.7178 17 14.7198 17 14.7218C17 14.7238 17 14.7258 17 14.7278C17 14.7298 17 14.7318 17 14.7338C17 14.7357 17 14.7377 17 14.7397C17 14.7417 17 14.7437 17 14.7457C17 14.7477 17 14.7496 17 14.7516C17 14.7536 17 14.7556 17 14.7576C17 14.7595 17 14.7615 17 14.7635C17 14.7654 17 14.7674 17 14.7694C17 14.7713 17 14.7733 17 14.7753C17 14.7772 17 14.7792 17 14.7812C17 14.7831 17 14.7851 17 14.787C17 14.789 17 14.7909 17 14.7929C17 14.7948 17 14.7968 17 14.7987C17 14.8007 17 14.8026 17 14.8046C17 14.8065 17 14.8084 17 14.8104C17 14.8123 17 14.8143 17 14.8162C17 14.8181 17 14.82 17 14.822C17 14.8239 17 14.8258 17 14.8278C17 14.8297 17 14.8316 17 14.8335C17 14.8354 17 14.8374 17 14.8393C17 14.8412 17 14.8431 17 14.845C17 14.8469 17 14.8488 17 14.8508C17 14.8527 17 14.8546 17 14.8565C17 14.8584 17 14.8603 17 14.8622C17 14.8641 17 14.866 17 14.8679C17 14.8698 17 14.8717 17 14.8735C17 14.8754 17 14.8773 17 14.8792C17 14.8811 17 14.883 17 14.8849C17 14.8867 17 14.8886 17 14.8905C17 14.8924 17 14.8942 17 14.8961C17 14.898 17 14.8999 17 14.9017C17 14.9036 17 14.9055 17 14.9073C17 14.9092 17 14.9111 17 14.9129C17 14.9148 17 14.9166 17 14.9185C17 14.9203 17 14.9222 17 14.924C17 14.9259 17 14.9277 17 14.9296C17 14.9314 17 14.9333 17 14.9351C17 14.937 17 14.9388 17 14.9406C17 14.9425 17 14.9443 17 14.9461C17 14.948 17 14.9498 17 14.9516C17 14.9535 17 14.9553 17 14.9571C17 14.9589 17 14.9608 17 14.9626C17 14.9644 17 14.9662 17 14.968C17 14.9698 17 14.9717 17 14.9735C17 14.9753 17 14.9771 17 14.9789C17 14.9807 17 14.9825 17 14.9843C17 14.9861 17 14.9879 17 14.9897C17 14.9915 17 14.9933 17 14.9951C17 14.9969 17 14.9987 17 15.0004C17 15.0022 17 15.004 17 15.0058C17 15.0076 17 15.0094 17 15.0111C17 15.0129 17 15.0147 17 15.0165C17 15.0182 17 15.02 17 15.0218C17 15.0235 17 15.0253 17 15.0271C17 15.0288 17 15.0306 17 15.0324C17 15.0341 17 15.0359 17 15.0376C17 15.0394 17 15.0411 17 15.0429C17 15.0446 17 15.0464 17 15.0481C17 15.0499 17 15.0516 17 15.0533C17 15.0551 17 15.0568 17 15.0586C17 15.0603 17 15.062 17 15.0638C17 15.0655 17 15.0672 17 15.0689C17 15.0707 17 15.0724 17 15.0741C17 15.0758 17 15.0776 17 15.0793C17 15.081 17 15.0827 17 15.0844C17 15.0861 17 15.0878 17 15.0895C17 15.0912 17 15.0929 17 15.0947C17 15.0964 17 15.0981 17 15.0997C17 15.1014 17 15.1031 17 15.1048C17 15.1065 17 15.1082 17 15.1099C17 15.1116 17 15.1133 17 15.115C17 15.1166 17 15.1183 17 15.12C17 15.1217 17 15.1233 17 15.125C17 15.1267 17 15.1284 17 15.13C17 15.1317 17 15.1334 17 15.135C17 15.1367 17 15.1384 17 15.14C17 15.1417 17 15.1433 17 15.145C17 15.1466 17 15.1483 17 15.1499C17 15.1516 17 15.1532 17 15.1549C17 15.1565 17 15.1581 17 15.1598C17 15.1614 17 15.1631 17 15.1647C17 15.1663 17 15.168 17 15.1696C17 15.1712 17 15.1728 17 15.1745C17 15.1761 17 15.1777 17 15.1793C17 15.1809 17 15.1826 17 15.1842C17 15.1858 17 15.1874 17 15.189C17 15.1906 17 15.1922 17 15.1938C17 15.1954 17 15.197 17 15.1986C17 15.2002 17 15.2018 17 15.2034C17 15.205 17 15.2066 17 15.2082C17 15.2098 17 15.2113 17 15.2129C17 15.2145 17 15.2161 17 15.2177C17 15.2192 17 15.2208 17 15.2224C17 15.224 17 15.2255 17 15.2271C17 15.2287 17 15.2302 17 15.2318C17 15.2334 17 15.2349 17 15.2365C17 15.238 17 15.2396 17 15.2411C17 15.2427 17 15.2442 17 15.2458C17 15.2473 17 15.2489 17 15.2504C17 15.252 17 15.2535 17 15.255C17 15.2566 17 15.2581 17 15.2596C17 15.2612 17 15.2627 17 15.2642C17 15.2657 17 15.2673 17 15.2688C17 15.2703 17 15.2718 17 15.2733C17 15.2749 17 15.2764 17 15.2779C17 15.2794 17 15.2809 17 15.2824C17 15.2839 17 15.2854 17 15.2869C17 15.2884 17 15.2899 17 15.2914C17 15.2929 17 15.2944 17 15.2959C17 15.2974 17 15.2989 17 15.3003C17 15.3018 17 15.3033 17 15.3048C17 15.3063 17 15.3077 17 15.3092C17 15.3107 17 15.3122 17 15.3136C17 15.3151 17 15.3166 17 15.318C17 15.3195 17 15.3209 17 15.3224C17 15.3238 17 15.3253 17 15.3268C17 15.3282 17 15.3297 17 15.3311C17 15.3325 17 15.334 17 15.3354C17 15.3369 17 15.3383 17 15.3397C17 15.3412 17 15.3426 17 15.344C17 15.3455 17 15.3469 17 15.3483C17 15.3497 17 15.3512 17 15.3526C17 15.354 17 15.3554 17 15.3568C17 15.3583 17 15.3597 17 15.3611C17 15.3625 17 15.3639 17 15.3653C17 15.3667 17 15.3681 17 15.3695C17 15.3709 17 15.3723 17 15.3737C17 15.3751 17 15.3764 17 15.3778C17 15.3792 17 15.3806 17 15.382C17 15.3834 17 15.3847 17 15.3861C17 15.3875 17 15.3889 17 15.3902C17 15.3916 17 15.393 17 15.3943C17 15.3957 17 15.3971 17 15.3984C17 15.3998 17 15.4011 17 15.4025C17 15.4038 17 15.4052 17 15.4065C17 15.4079 17 15.4092 17 15.4106C17 15.4119 17 15.4132 17 15.4146C17 15.4159 17 15.4173 17 15.4186C17 15.4199 17 15.4212 17 15.4226C17 15.4239 17 15.4252 17 15.4265C17 15.4279 17 15.4292 17 15.4305C17 15.4318 17 15.4331 17 15.4344C17 15.4357 17 15.437 17 15.4383C17 15.4396 17 15.4409 17 15.4422C17 15.4435 17 15.4448 17 15.4461C17 15.4474 17 15.4487 17 15.45C17 15.4513 17 15.4525 17 15.4538C17 15.4551 17 15.4564 17 15.4576C17 15.4589 17 15.4602 17 15.4615C17 15.4627 17 15.464 17 15.4652C17 15.4665 17 15.4678 17 15.469C17 15.4703 17 15.4715 17 15.4728C17 15.474 17 15.4753 17 15.4765C17 15.4778 17 15.479 17 15.4803C17 15.4815 17 15.4827 17 15.484C17 15.4852 17 15.4864 17 15.4876C17 15.4889 17 15.4901 17 15.4913C17 15.4925 17 15.4938 17 15.495C17 15.4962 17 15.4974 17 15.4986C17 15.4998 17 15.501 17 15.5022C17 15.5034 17 15.5046 17 15.5058C17 15.507 17 15.5082 17 15.5094C17 15.5106 17 15.5118 17 15.513C17 15.5142 17 15.5154 17 15.5165C17 15.5177 17 15.5189 17 15.5201C17 15.5212 17 15.5224 17 15.5236C17 15.5247 17 15.5259 17 15.5271C17 15.5282 17 15.5294 17 15.5306C17 15.5317 17 15.5329 17 15.534C17 15.5352 17 15.5363 17 15.5375C17 15.5386 17 15.5397 17 15.5409C17 15.542 17 15.5431 17 15.5443C17 15.5454 17 15.5465 17 15.5477C17 15.5488 17 15.5499 17 15.551C17 15.5522 17 15.5533 17 15.5544C17 15.5555 17 15.5566 17 15.5577C17 15.5588 17 15.5599 17 15.561C17 15.5621 17 15.5632 17 15.5643C17 15.5654 17 15.5665 17 15.5676C17 15.5687 17 15.5698 17 15.5709C17 15.572 17 15.573 17 15.5741C17 15.5752 17 15.5763 17 15.5773C17 15.5784 17 15.5795 17 15.5805C17 15.5816 17 15.5827 17 15.5837C17 15.5848 17 15.5858 17 15.5869C17 15.5879 17 15.589 17 15.59C17 15.5911 17 15.5921 17 15.5932C17 15.5942 17 15.5953 17 15.5963C17 15.5973 17 15.5984 17 15.5994C17 15.6004 17 15.6014 17 15.6025C17 15.6035 17 15.6045 17 15.6055C17 15.6065 17 15.6075 17 15.6086C17 15.6096 17 15.6106 17 15.6116C17 15.6126 17 15.6136 17 15.6146C17 15.6156 17 15.6166 17 15.6176C17 15.6185 17 15.6195 17 15.6205C17 15.6215 17 15.6225 17 15.6235C17 15.6244 17 15.6254 17 15.6264C17 15.6274 17 15.6283 17 15.6293C17 15.6303 17 15.6312 17 15.6322C17 15.6331 17 15.6341 17 15.635C17 15.636 17 15.6369 17 15.6379C17 15.6388 17 15.6398 17 15.6407C17 15.6417 17 15.6426 17 15.6435C17 15.6445 17 15.6454 17 15.6463C17 15.6473 17 15.6482 17 15.6491C17 15.65 17 15.6509 17 15.6518C17 15.6528 17 15.6537 17 15.6546C17 15.6555 17 15.6564 17 15.6573C17 15.6582 17 15.6591 17 15.66C17 15.6609 17 15.6618 17 15.6627C17 15.6636 17 15.6644 17 15.6653C17 15.6662 17 15.6671 17 15.668C17 15.6688 17 15.6697 17 15.6706C17 15.6714 17 15.6723 17 15.6732C17 15.674 17 15.6749 17 15.6758C17 15.6766 17 15.6775 17 15.6783C17 15.6792 17 15.68 17 15.6809C17 15.6817 17 15.6825 17 15.6834C17 15.6842 17 15.685 17 15.6859C17 15.6867 17 15.6875 17 15.6884C17 15.6892 17 15.69 17 15.6908C17 15.6916 17 15.6924 17 15.6933C17 15.6941 17 15.6949 17 15.6957C17 15.6965 17 15.6973 17 15.6981C17 15.6989 17 15.6997 17 15.7005C17 15.7012 17 15.702 17 15.7028C17 15.7036 17 15.7044 17 15.7052C17 15.7059 17 15.7067 17 15.7075C17 15.7083 17 15.709 17 15.7098C17 15.7105 17 15.7113 17 15.7121C17 15.7128 17 15.7136 17 15.7143C17 15.7151 17 15.7158 17 15.7166C17 15.7173 17 15.7181 17 15.7188C17 15.7195 17 15.7203 17 15.721C17 15.7217 17 15.7224 17 15.7232C17 15.7239 17 15.7246 17 15.7253C17 15.726 17 15.7268 17 15.7275C17 15.7282 17 15.7289 17 15.7296C17 15.7303 17 15.731 17 15.7317C17 15.7324 17 15.7331 17 15.7338C17 15.7345 17 15.7351 17 15.7358C17 15.7365 17 15.7372 17 15.7379C17 15.7385 17 15.7392 17 15.7399C17 15.7406 17 15.7412 17 15.7419C17 15.7425 17 15.7432 17 15.7439C17 15.7445 17 15.7452 17 15.7458C17 15.7465 17 15.7471 17 15.7478C17 15.7484 17 15.749 17 15.7497C17 15.7503 17 15.7509 17 15.7516C17 15.7522 17 15.7528 17 15.7534C17 15.7541 17 15.7547 17 15.7553C17 15.7559 17 15.7565 17 15.7571C17 15.7577 17 15.7583 17 15.7589C17 15.7595 17 15.7601 17 15.7607C17 15.7613 17 15.7619 17 15.7625C17 15.7631 17 15.7637 17 15.7642C17 15.7648 17 15.7654 17 15.766C17 15.7665 17 15.7671 17 15.7677C17 15.7682 17 15.7688 17 15.7694C17 15.7699 17 15.7705 17 15.771C17 15.7716 17 15.7721 17 15.7727C17 15.7732 17 15.7738 17 15.7743C17 15.7748 17 15.7754 17 15.7759C17 15.7764 17 15.7769 17 15.7775C17 15.778 17 15.7785 17 15.779C17 15.7795 17 15.7801 17 15.7806C17 15.7811 17 15.7816 17 15.7821C17 15.7826 17 15.7831 17 15.7836C17 15.7841 17 15.7846 17 15.7851C17 15.7855 17 15.786 17 15.7865C17 15.787 17 15.7875 17 15.7879C17 15.7884 17 15.7889 17 15.7893C17 15.7898 17 15.7903 17 15.7907C17 15.7912 17 15.7916 17 15.7921C17 15.7926 17 15.793 17 15.7934C17 15.7939 17 15.7943 17 15.7948C17 15.7952 17 15.7956 17 15.7961C17 15.7965 17 15.7969 17 15.7973C17 15.7978 17 15.7982 17 15.7986C17 15.799 17 15.7994 17 15.7998C17 15.8003 17 15.8007 17 15.8011C17 15.8015 17 15.8019 17 15.8022C17 15.8026 17 15.803 17 15.8034C17 15.8038 17 15.8042 17 15.8046C17 15.8049 17 15.8053 17 15.8057C17 15.8061 17 15.8064 17 15.8068C17 15.8072 17 15.8075 17 15.8079C17 15.8082 17 15.8086 17 15.8089C17 15.8093 17 15.8096 17 15.81C17 15.8103 17 15.8107 17 15.811C17 15.8113 17 15.8117 17 15.812C17 15.8123 17 15.8126 17 15.813C17 15.8133 17 15.8136 17 15.8139C17 15.8142 17 15.8145 17 15.8148C17 15.8152 17 15.8155 17 15.8158C17 15.8161 17 15.8163 17 15.8166C17 15.8169 17 15.8172 17 15.8175C17 15.8178 17 15.8181 17 15.8183C17 15.8186 17 15.8189 17 15.8192C17 15.8194 17 15.8197 17 15.82C17 15.8202 17 15.8205 17 15.8207C17 15.821 17 15.8212 17 15.8215C17 15.8217 17 15.822 17 15.8222C17 15.8224 17 15.8227 17 15.8229C17 15.8231 17 15.8234 17 15.8236C17 15.8238 17 15.824 17 15.8242C17 15.8245 17 15.8247 17 15.8249C17 15.8251 17 15.8253 17 15.8255C17 15.8257 17 15.8259 17 15.8261C17 15.8263 17 15.8265 17 15.8267C17 15.8268 17 15.827 17 15.8272C17 15.8274 17 15.8275 17 15.8277C17 15.8279 17 15.8281 17 15.8282C17 15.8284 17 15.8285 17 15.8287C17 15.8289 17 15.829 17 15.8292C17 15.8293 17 15.8294 17 15.8296C17 15.8297 17 15.8299 17 15.83C17 15.8301 17 15.8303 17 15.8304C17 15.8305 17 15.8306 17 15.8307C17 15.8309 17 15.831 17 15.8311C17 15.8312 17 15.8313 17 15.8314C17 15.8315 17 15.8316 17 15.8317C17 15.8318 17 15.8319 17 15.832C17 15.832 17 15.8321 17 15.8322C17 15.8323 17 15.8324 17 15.8324C17 15.8325 17 15.8326 17 15.8326C17 15.8327 17 15.8327 17 15.8328C17 15.8329 17 15.8329 17 15.833C17 15.833 17 15.833 17 15.8331C17 15.8331 17 15.8332 17 15.8332C17 15.8332 17 15.8332 17 15.8333C17 15.8333 17 15.8333 17 15.8333C17 15.8333 17 15.8334 17 15.8334C17 15.8334 17 15.8334 17.5 15.8334ZM13.8131 6.14649L9.64645 10.3132L10.3536 11.0203L14.5202 6.85359L13.8131 6.14649ZM10.3536 10.3132L6.18689 6.14649L5.47978 6.85359L9.64645 11.0203L10.3536 10.3132ZM10.5 10.6667V1.08337H9.5V10.6667H10.5ZM17.5 13H2.5V14H17.5V13ZM18 15.8334V13.5H17V15.8334H18Z" fill="#222222"/>
</svg>
