<svg width="20" height="20" viewBox="0 0 20 20" fill="none" xmlns="http://www.w3.org/2000/svg">
<path d="M2.5 5H4.16667H17.5" fill="#FFDD99"/>
<path d="M2.5 5H4.16667H17.5" stroke="#222222" stroke-linecap="square"/>
<path d="M15.8333 4.99996V16.6666C15.8333 17.1087 15.6577 17.5326 15.3452 17.8451C15.0326 18.1577 14.6087 18.3333 14.1667 18.3333H5.83334C5.39131 18.3333 4.96739 18.1577 4.65483 17.8451C4.34227 17.5326 4.16667 17.1087 4.16667 16.6666V4.99996H15.8333ZM6.66667 4.99996V3.33329C6.66667 2.89127 6.84227 2.46734 7.15483 2.15478C7.46739 1.84222 7.89131 1.66663 8.33334 1.66663H11.6667C12.1087 1.66663 12.5326 1.84222 12.8452 2.15478C13.1577 2.46734 13.3333 2.89127 13.3333 3.33329V4.99996" fill="#FFDD99"/>
<path d="M6.66667 4.99996V3.33329C6.66667 2.89127 6.84227 2.46734 7.15483 2.15478C7.46739 1.84222 7.89131 1.66663 8.33334 1.66663H11.6667C12.1087 1.66663 12.5326 1.84222 12.8452 2.15478C13.1577 2.46734 13.3333 2.89127 13.3333 3.33329V4.99996M15.8333 4.99996V16.6666C15.8333 17.1087 15.6577 17.5326 15.3452 17.8451C15.0326 18.1577 14.6087 18.3333 14.1667 18.3333H5.83334C5.39131 18.3333 4.96739 18.1577 4.65483 17.8451C4.34227 17.5326 4.16667 17.1087 4.16667 16.6666V4.99996H15.8333Z" stroke="#222222" stroke-linecap="square"/>
<path d="M8.33333 9.16663V14.1666" stroke="#222222" stroke-linecap="square"/>
<path d="M11.6667 9.16663V14.1666" stroke="#222222" stroke-linecap="square"/>
</svg>
