<svg width="20" height="20" viewBox="0 0 20 20" fill="none" xmlns="http://www.w3.org/2000/svg">
<path d="M7.10334 7.33404L6.93742 7.8057L7.88075 8.13755L8.04667 7.66588L7.10334 7.33404ZM12.4333 8.33329L11.9333 8.33255V8.33329H12.4333ZM9.77522 10.359L9.30088 10.5171L9.61711 11.4657L10.0915 11.3076L9.77522 10.359ZM10 13.8333V14.8333C10.5523 14.8333 11 14.3856 11 13.8333H10ZM10 13.8333H9C9 14.3856 9.44772 14.8333 10 14.8333V13.8333ZM10 13.8333V12.8333C9.44772 12.8333 9 13.281 9 13.8333H10ZM10 13.8333H11C11 13.281 10.5523 12.8333 10 12.8333V13.8333ZM17.8333 9.99996C17.8333 14.3262 14.3262 17.8333 10 17.8333V18.8333C14.8785 18.8333 18.8333 14.8785 18.8333 9.99996H17.8333ZM10 17.8333C5.67377 17.8333 2.16667 14.3262 2.16667 9.99996H1.16667C1.16667 14.8785 5.12149 18.8333 10 18.8333V17.8333ZM2.16667 9.99996C2.16667 5.67373 5.67377 2.16663 10 2.16663V1.16663C5.12149 1.16663 1.16667 5.12144 1.16667 9.99996H2.16667ZM10 2.16663C14.3262 2.16663 17.8333 5.67373 17.8333 9.99996H18.8333C18.8333 5.12144 14.8785 1.16663 10 1.16663V2.16663ZM8.04667 7.66588C8.20341 7.22033 8.51277 6.84462 8.91998 6.6053L8.41329 5.74317C7.80249 6.10214 7.33844 6.6657 7.10334 7.33404L8.04667 7.66588ZM8.91998 6.6053C9.32718 6.36599 9.80594 6.27851 10.2715 6.35836L10.4405 5.37275C9.74223 5.25298 9.0241 5.3842 8.41329 5.74317L8.91998 6.6053ZM10.2715 6.35836C10.737 6.4382 11.1592 6.68023 11.4634 7.04157L12.2284 6.39757C11.7722 5.85556 11.1388 5.49252 10.4405 5.37275L10.2715 6.35836ZM11.4634 7.04157C11.7676 7.4029 11.934 7.86023 11.9333 8.33255L12.9333 8.33404C12.9344 7.62556 12.6847 6.93957 12.2284 6.39757L11.4634 7.04157ZM11.9333 8.33329C11.9333 8.90119 11.5008 9.39573 10.906 9.79227C10.6238 9.98039 10.3381 10.1236 10.1209 10.2201C10.013 10.2681 9.92382 10.3037 9.86276 10.327C9.83227 10.3386 9.80892 10.3471 9.79391 10.3524C9.78641 10.3551 9.781 10.357 9.77783 10.3581C9.77625 10.3586 9.77522 10.3589 9.77478 10.3591C9.77456 10.3592 9.77449 10.3592 9.77456 10.3592C9.7746 10.3592 9.77467 10.3591 9.77478 10.3591C9.77484 10.3591 9.77495 10.359 9.77497 10.359C9.77509 10.359 9.77522 10.359 9.93334 10.8333C10.0915 11.3076 10.0916 11.3076 10.0918 11.3075C10.0918 11.3075 10.092 11.3075 10.0921 11.3074C10.0924 11.3073 10.0927 11.3072 10.093 11.3071C10.0937 11.3069 10.0945 11.3066 10.0955 11.3063C10.0975 11.3056 10.1 11.3047 10.1032 11.3036C10.1095 11.3015 10.1181 11.2985 10.1289 11.2946C10.1505 11.287 10.1809 11.2759 10.2188 11.2615C10.2944 11.2327 10.4005 11.1902 10.527 11.1339C10.7786 11.0221 11.1179 10.8529 11.4607 10.6243C12.1159 10.1875 12.9333 9.43206 12.9333 8.33329H11.9333Z" fill="#222222"/>
</svg>
