<svg width="20" height="20" viewBox="0 0 20 20" fill="none" xmlns="http://www.w3.org/2000/svg">
<path d="M11.1264 8.49129C10.9761 8.36971 10.8043 8.28866 10.611 8.22787C10.4177 8.18734 10.2029 8.16708 9.94523 8.16708H8.95731C8.7855 8.16708 8.67812 8.2076 8.59221 8.26839C8.52778 8.32918 8.48483 8.45077 8.48483 8.61287V11.2269C8.48483 11.3484 8.48483 11.4295 8.52778 11.5105C8.54926 11.5916 8.59221 11.6321 8.65664 11.6726C8.72107 11.7132 8.82845 11.7334 8.97879 11.7334H9.96671C10.1385 11.7334 10.2889 11.7132 10.4392 11.6929C10.568 11.6726 10.6969 11.6321 10.8258 11.5916C10.9546 11.5308 11.062 11.47 11.1479 11.389C11.2768 11.2674 11.3842 11.1458 11.4701 11.004C11.556 10.8621 11.6204 10.7 11.6634 10.5176C11.7063 10.3353 11.7278 10.1529 11.7278 9.93C11.7278 9.30183 11.5345 8.81551 11.1264 8.49129ZM10.568 11.004C10.5036 11.0445 10.4392 11.085 10.3748 11.1053C10.2889 11.1255 10.2244 11.1458 10.16 11.1458C10.0956 11.1458 9.98818 11.1458 9.85932 11.1458H9.27946V8.71419H9.7949C10.0311 8.71419 10.2244 8.73445 10.3962 8.79524C10.568 8.83577 10.6969 8.95735 10.8043 9.13972C10.9117 9.32209 10.9761 9.58552 10.9761 9.93C10.9546 10.4568 10.8258 10.8013 10.568 11.004Z" fill="#222222"/>
<path d="M17.957 3.99189L17.9356 3.97163V3.95137L13.8336 0.0810537C13.8336 0.0810537 13.8121 0.0810537 13.8121 0.0607903C13.8121 0.0607903 13.7906 0.0607903 13.7906 0.0405268C13.7262 0 13.6617 0 13.5758 0H3.4604C3.07383 0 2.70872 0.141844 2.45101 0.385005L2.42953 0.405268C2.17181 0.64843 2 1.01317 2 1.37791V18.6221C2 19.0071 2.17181 19.3516 2.42953 19.5947C2.68725 19.8379 3.07383 20 3.4604 20H16.5396C16.9477 20 17.3128 19.8379 17.5705 19.5947C17.8282 19.3516 18 18.9868 18 18.6221V4.19453C18 4.11348 17.9785 4.05268 17.957 3.99189ZM13.9839 1.45897L16.4107 3.74873H14.6282C14.4564 3.74873 14.2846 3.68794 14.1772 3.56636C14.0698 3.46505 13.9839 3.30294 13.9839 3.14083V1.45897ZM17.0765 18.6221C17.0765 18.7639 17.0121 18.8855 16.9047 18.9868C16.7973 19.0881 16.6685 19.1489 16.5181 19.1489H3.4604C3.31007 19.1489 3.18121 19.0881 3.07383 19.0071C2.96644 18.9058 2.92349 18.7842 2.92349 18.6424V1.35765C2.92349 1.21581 2.98792 1.09422 3.0953 0.992908L3.11678 0.972644C3.22416 0.891591 3.35302 0.8308 3.48188 0.8308H13.1034V3.12057C13.1034 3.52584 13.2752 3.89058 13.5758 4.17427C13.855 4.43769 14.2631 4.5998 14.6926 4.5998H17.0765V18.6221Z" fill="#222222"/>
<path d="M7.49872 8.44814C7.39134 8.34683 7.26248 8.28604 7.09067 8.24551C6.94034 8.20498 6.7041 8.18472 6.4249 8.18472H5.43698C5.26517 8.18472 5.13631 8.22525 5.07188 8.28604C4.98598 8.34683 4.9645 8.46841 4.9645 8.63051V11.3863C4.9645 11.5282 5.00746 11.6295 5.07188 11.7105C5.13631 11.7916 5.2437 11.8119 5.35108 11.8119C5.45846 11.8119 5.54437 11.7713 5.63027 11.6903C5.6947 11.6092 5.73766 11.5079 5.73766 11.3661V10.3529H6.44638C6.91886 10.3529 7.26248 10.2516 7.49872 10.0692C7.73497 9.88684 7.86382 9.60315 7.86382 9.23841C7.86382 9.07631 7.84235 8.9142 7.77792 8.77236C7.69201 8.65078 7.60611 8.5292 7.49872 8.44814ZM6.98329 9.58289C6.91886 9.66394 6.83295 9.72474 6.7041 9.76526C6.57524 9.80579 6.4249 9.82605 6.25309 9.82605H5.73766V8.73183H6.25309C6.59671 8.73183 6.81148 8.79262 6.94034 8.89394C7.04772 8.99525 7.09067 9.11683 7.09067 9.27894C7.0692 9.40052 7.04772 9.50184 6.98329 9.58289Z" fill="#222222"/>
<path d="M12.8653 8.14505C12.7365 8.16532 12.6505 8.18558 12.5861 8.22611C12.5217 8.24637 12.4573 8.30716 12.4358 8.36795C12.3928 8.42874 12.3928 8.50979 12.3928 8.63137V11.3669C12.3928 11.5088 12.4358 11.6303 12.5002 11.6911C12.5646 11.7722 12.672 11.7925 12.7794 11.7925C12.8868 11.7925 12.9727 11.7519 13.0586 11.6911C13.123 11.6101 13.166 11.5088 13.166 11.3669V10.1917H14.4331C14.5405 10.1917 14.6264 10.1714 14.6908 10.1106C14.7552 10.0701 14.7767 9.98902 14.7767 9.90796C14.7767 9.82691 14.7552 9.76612 14.6908 9.70533C14.6264 9.6648 14.5405 9.62428 14.4331 9.62428H13.166V8.71243H14.6693C14.7982 8.71243 14.8841 8.69216 14.9485 8.63137C15.013 8.57058 15.0344 8.50979 15.0344 8.42874C15.0344 8.34769 15.013 8.2869 14.9485 8.22611C14.8841 8.16532 14.7982 8.14505 14.6693 8.14505H12.8653Z" fill="#222222"/>
</svg>
