<svg width="48" height="48" viewBox="0 0 48 48" fill="none" xmlns="http://www.w3.org/2000/svg">
<path d="M34.0996 18.8545C34.0996 16.7041 35.7892 14.9761 38.0164 14.9761C40.3204 14.9761 42.0484 16.7041 42.0484 18.8545C42.0484 21.0433 40.3204 22.7329 38.0164 22.7329C35.7508 22.7329 34.0996 21.0433 34.0996 18.8545ZM34.0996 29.8369C34.0996 27.6865 35.7892 25.9585 38.0164 25.9585C40.3204 25.9585 42.0484 27.6865 42.0484 29.8369C42.0484 31.9873 40.3204 33.7153 38.0164 33.7153C35.7508 33.7153 34.0996 31.9873 34.0996 29.8369Z" fill="#231F20"/>
<path d="M5.91406 12.1343V36.0191H29.7989V12.1343H5.91406ZM23.0021 16.0895L9.90766 29.1839V16.0895H23.0021ZM12.7109 32.0255L25.8053 18.9311V32.0255H12.7109Z" fill="#231F20"/>
</svg>
